<?xml version="1.0" standalone="no"?>
   <!DOCTYPE svg PUBLIC "-//W3C//DTD SVG 1.1//EN" 
   "http://www.w3.org/Graphics/SVG/1.1/DTD/svg11.dtd"><svg id="svg" version="1.1" width="1830" height="2616" xmlns="http://www.w3.org/2000/svg"><path d="M941.240 233.250 C 940.517 242.738,939.715 295.725,939.459 351.000 C 939.202 406.275,938.114 470.738,937.041 494.250 C 935.125 536.233,934.967 537.000,928.222 537.000 C 919.240 537.000,915.756 542.940,922.042 547.536 C 925.824 550.302,927.000 556.075,927.000 571.879 L 927.000 592.596 898.614 598.758 C 874.795 603.929,869.968 604.244,868.614 600.715 C 867.726 598.402,867.000 579.070,867.000 557.755 C 867.000 503.013,861.376 507.557,860.330 563.143 L 859.500 607.286 837.000 612.520 C 824.625 615.399,813.692 617.809,812.703 617.877 C 811.715 617.945,810.656 598.221,810.350 574.047 C 810.044 549.872,809.072 528.925,808.190 527.498 C 803.587 520.051,801.000 531.632,801.000 559.677 C 801.000 591.328,800.699 592.181,790.020 590.731 C 786.092 590.198,781.859 601.120,785.521 602.340 C 787.434 602.978,789.000 607.224,789.000 611.775 C 789.000 618.782,787.223 620.583,777.402 623.525 C 771.023 625.436,764.948 627.000,763.902 627.000 C 760.561 627.000,761.866 592.334,765.339 588.861 C 767.217 586.983,767.615 583.804,766.250 581.595 C 764.915 579.435,764.182 572.687,764.621 566.600 C 765.174 558.951,763.937 554.703,760.616 552.845 C 756.349 550.457,755.738 536.348,755.156 426.578 C 754.795 358.610,753.488 303.000,752.250 303.000 C 751.013 303.000,749.964 309.413,749.919 317.250 C 749.875 325.088,748.077 376.050,745.924 430.500 C 743.772 484.950,742.502 552.113,743.103 579.750 C 743.704 607.388,743.140 630.000,741.848 629.999 C 739.788 629.999,738.778 606.722,738.170 545.250 C 738.068 534.859,736.694 528.000,734.716 528.000 C 732.405 528.000,731.861 544.015,732.880 582.039 C 734.163 629.927,733.768 636.392,729.414 638.837 C 724.875 641.386,724.880 641.743,729.482 643.516 C 733.670 645.130,734.512 650.593,734.771 677.800 L 735.078 710.163 714.880 712.233 C 661.371 717.715,617.310 759.217,603.123 817.500 C 598.072 838.248,598.771 885.815,604.445 907.500 C 624.438 983.916,687.410 1037.116,750.652 1031.021 C 761.018 1030.021,772.200 1028.820,775.500 1028.352 C 780.689 1027.615,781.452 1029.122,781.147 1039.500 C 780.952 1046.100,780.615 1071.413,780.397 1095.750 C 780.019 1137.868,779.711 1140.000,774.000 1140.000 C 767.637 1140.000,765.405 1150.042,771.000 1153.500 C 777.275 1157.378,773.551 1166.356,761.726 1175.859 L 749.453 1185.722 751.178 1162.590 L 752.903 1139.457 738.701 1140.221 C 730.891 1140.641,711.575 1140.763,695.778 1140.492 L 667.056 1140.000 667.121 1130.250 C 667.277 1106.730,665.829 1089.000,663.750 1089.000 C 662.513 1088.999,661.976 1100.474,662.558 1114.500 L 663.616 1140.000 653.199 1140.000 C 645.270 1140.000,642.786 1138.746,642.802 1134.750 C 642.946 1097.875,641.511 1077.000,638.833 1077.000 C 636.773 1077.000,635.857 1088.272,636.213 1109.250 C 636.758 1141.367,636.731 1141.500,629.630 1141.462 C 621.608 1141.419,621.891 1143.036,621.334 1094.073 C 621.145 1077.433,619.824 1065.373,618.293 1066.319 C 616.805 1067.239,616.189 1083.518,616.925 1102.496 C 618.404 1140.600,617.245 1142.706,602.769 1128.231 C 594.306 1119.768,593.992 1118.432,593.778 1089.981 C 593.655 1073.766,592.438 1054.425,591.072 1047.000 C 589.154 1036.571,588.559 1042.031,588.456 1071.000 C 588.382 1091.625,588.250 1110.143,588.161 1112.150 C 588.073 1114.158,583.455 1111.255,577.900 1105.700 L 567.800 1095.600 565.541 1052.550 C 564.298 1028.873,562.356 1012.200,561.226 1015.500 C 560.096 1018.800,560.136 1047.150,561.316 1078.500 C 562.495 1109.850,563.582 1147.988,563.730 1163.250 C 563.901 1180.797,565.181 1191.000,567.211 1191.000 C 569.442 1191.000,569.766 1178.079,568.273 1148.660 C 566.192 1107.676,566.306 1106.419,571.812 1109.415 C 587.973 1118.208,589.956 1122.859,592.066 1156.924 C 593.176 1174.841,593.372 1217.175,592.501 1251.000 C 589.524 1366.593,588.884 1405.500,590.115 1395.973 C 590.793 1390.734,593.294 1384.831,595.673 1382.856 C 598.857 1380.214,600.012 1372.031,600.046 1351.883 C 600.092 1324.520,602.402 1315.709,609.650 1315.263 C 611.768 1315.132,625.299 1313.961,639.720 1312.660 L 665.939 1310.295 693.584 1335.398 C 730.911 1369.291,731.455 1369.856,731.242 1374.464 C 731.139 1376.684,731.267 1388.288,731.527 1400.250 C 731.956 1419.960,732.572 1422.000,738.097 1422.000 C 741.450 1422.000,745.162 1419.427,746.347 1416.283 C 748.344 1410.980,749.301 1411.252,759.569 1420.033 L 770.638 1429.500 768.871 1478.250 C 767.577 1513.959,766.114 1527.000,763.402 1527.000 C 761.366 1527.000,759.041 1529.521,758.235 1532.602 C 757.188 1536.605,752.853 1538.791,743.039 1540.262 C 722.948 1543.275,690.054 1554.640,673.722 1564.211 C 659.646 1572.460,649.278 1587.988,653.518 1594.470 C 654.608 1596.137,655.614 1616.400,655.752 1639.500 C 656.231 1719.068,656.108 1717.927,665.250 1727.959 C 670.902 1734.160,683.249 1740.662,704.452 1748.600 L 735.404 1760.188 634.177 1911.344 C 468.603 2158.585,464.581 2164.461,460.224 2165.466 C 457.921 2165.998,445.522 2180.173,432.670 2196.966 C 381.332 2264.049,387.317 2258.038,369.000 2260.912 C 353.202 2263.390,352.460 2263.915,351.560 2273.250 C 350.820 2280.919,351.749 2283.000,355.910 2283.000 C 359.058 2283.000,360.046 2284.037,358.350 2285.561 C 356.045 2287.632,238.209 2310.142,230.250 2310.031 C 229.013 2310.014,228.000 2329.575,228.000 2353.500 L 228.000 2397.000 915.000 2397.000 L 1602.000 2397.000 1602.000 2318.864 L 1602.000 2240.728 1592.250 2242.438 C 1546.335 2250.493,1465.196 2261.346,1463.690 2259.634 C 1462.657 2258.460,1450.154 2242.177,1435.906 2223.448 C 1415.123 2196.131,1410.000 2187.380,1410.000 2179.198 C 1410.000 2172.133,1411.382 2169.000,1414.500 2169.000 C 1417.046 2169.000,1419.000 2166.312,1419.000 2162.811 C 1419.000 2158.641,1420.712 2156.860,1424.250 2157.349 C 1427.138 2157.748,1437.852 2155.654,1448.060 2152.695 C 1467.712 2146.999,1473.878 2140.255,1465.221 2133.925 C 1459.242 2129.553,1454.582 2131.419,1456.833 2137.285 C 1458.156 2140.733,1446.449 2152.449,1444.064 2150.064 C 1443.625 2149.625,1445.365 2143.243,1447.932 2135.883 C 1460.185 2100.738,1439.207 2050.567,1414.818 2056.688 C 1407.189 2058.603,1407.000 2058.294,1407.000 2043.925 C 1407.000 2035.826,1408.620 2027.580,1410.600 2025.600 C 1413.400 2022.800,1411.733 2022.000,1403.100 2022.000 C 1392.480 2022.000,1388.631 2025.564,1395.000 2029.500 C 1396.650 2030.520,1398.000 2037.049,1398.000 2044.010 C 1398.000 2062.929,1391.584 2067.000,1361.768 2067.000 C 1336.399 2067.000,1326.000 2063.858,1326.000 2056.192 C 1326.000 2052.974,1324.216 2052.162,1320.052 2053.483 C 1315.106 2055.053,1311.247 2050.922,1297.124 2028.936 C 1287.785 2014.396,1271.779 1989.675,1261.557 1974.000 C 1216.939 1905.586,1136.991 1779.468,1135.076 1774.476 C 1133.667 1770.806,1134.089 1769.701,1136.362 1771.106 C 1138.357 1772.339,1141.674 1769.464,1144.449 1764.098 C 1147.037 1759.094,1150.614 1755.000,1152.398 1755.000 C 1157.562 1755.000,1193.300 1737.272,1198.383 1732.188 C 1201.334 1729.238,1203.000 1722.041,1203.000 1712.249 C 1203.000 1703.821,1204.562 1692.606,1206.471 1687.327 C 1209.286 1679.543,1209.033 1675.455,1205.135 1665.713 C 1200.970 1655.304,1200.895 1652.950,1204.569 1648.099 C 1209.806 1641.184,1210.160 1630.776,1205.417 1623.182 C 1202.640 1618.735,1202.640 1615.676,1205.417 1609.581 C 1214.464 1589.726,1203.520 1573.468,1171.888 1559.770 C 1157.633 1553.596,1155.095 1551.309,1155.051 1544.600 C 1155.019 1539.624,1153.054 1536.191,1149.744 1535.325 C 1144.411 1533.931,1142.700 1519.767,1147.020 1512.776 C 1148.130 1510.981,1147.341 1508.808,1145.269 1507.946 C 1143.196 1507.085,1144.713 1506.632,1148.641 1506.940 C 1153.686 1507.336,1156.059 1505.755,1156.727 1501.554 C 1157.248 1498.284,1159.097 1495.134,1160.837 1494.554 C 1162.576 1493.975,1164.000 1491.621,1164.000 1489.325 C 1164.000 1486.307,1166.439 1485.638,1172.801 1486.910 C 1179.678 1488.286,1183.285 1486.988,1189.301 1480.972 C 1193.536 1476.737,1196.893 1470.849,1196.763 1467.886 C 1196.607 1464.329,1195.503 1465.303,1193.511 1470.756 C 1190.173 1479.897,1180.397 1483.754,1168.279 1480.713 C 1161.497 1479.010,1160.656 1477.409,1161.368 1467.554 C 1161.813 1461.382,1161.172 1454.706,1159.943 1452.717 C 1156.104 1446.504,1161.079 1428.679,1167.092 1427.107 C 1171.351 1425.993,1174.477 1429.333,1180.717 1441.666 C 1185.171 1450.469,1190.687 1458.389,1192.977 1459.268 C 1195.266 1460.146,1205.968 1454.820,1216.759 1447.432 C 1227.550 1440.045,1236.969 1434.000,1237.690 1434.000 C 1238.410 1434.000,1239.000 1437.375,1239.000 1441.500 C 1239.000 1449.875,1246.268 1451.842,1249.179 1444.255 C 1253.118 1433.991,1250.935 1428.564,1241.552 1425.293 C 1228.334 1420.685,1226.073 1421.133,1227.869 1428.000 C 1228.732 1431.300,1228.072 1434.000,1226.402 1434.000 C 1224.732 1434.000,1219.355 1437.375,1214.453 1441.500 C 1203.945 1450.342,1200.294 1450.934,1200.587 1443.750 C 1200.705 1440.863,1199.801 1436.138,1198.580 1433.250 C 1196.799 1429.042,1197.876 1428.000,1204.002 1428.000 C 1208.206 1428.000,1212.480 1429.350,1213.500 1431.000 C 1215.902 1434.887,1221.000 1434.879,1221.000 1430.988 C 1221.000 1429.332,1215.263 1426.430,1208.250 1424.539 C 1196.152 1421.276,1195.181 1420.164,1189.258 1402.800 C 1185.824 1392.735,1181.962 1382.122,1180.674 1379.216 C 1178.881 1375.171,1179.429 1374.353,1183.011 1375.727 C 1188.480 1377.826,1204.088 1369.707,1215.209 1358.978 C 1234.843 1340.036,1246.445 1309.016,1237.312 1299.883 C 1233.441 1296.013,1226.492 1293.905,1212.682 1292.413 C 1210.582 1292.186,1208.121 1288.513,1207.214 1284.250 C 1202.350 1261.390,1187.827 1240.577,1174.389 1237.204 C 1157.297 1232.914,1146.247 1251.366,1149.845 1278.190 C 1150.716 1284.686,1150.160 1290.000,1148.609 1290.000 C 1146.947 1290.000,1147.065 1292.384,1148.894 1295.803 C 1152.230 1302.035,1153.189 1343.412,1150.179 1351.255 C 1148.748 1354.985,1143.652 1356.000,1126.356 1356.000 C 1114.255 1356.000,1103.489 1354.600,1102.431 1352.888 C 1101.373 1351.176,1100.667 1325.189,1100.863 1295.138 L 1101.218 1240.500 1113.005 1230.000 C 1127.919 1216.714,1130.954 1202.939,1122.105 1188.689 C 1118.755 1183.293,1112.636 1177.338,1108.507 1175.457 C 1099.727 1171.457,1097.989 1156.363,1105.663 1150.752 C 1111.064 1146.803,1108.580 1137.000,1102.179 1137.000 C 1098.690 1137.000,1098.000 1120.432,1098.000 1036.702 C 1098.000 937.859,1098.090 936.376,1104.220 934.430 C 1107.640 933.345,1129.578 932.687,1152.970 932.969 C 1217.475 933.746,1215.975 933.859,1220.066 927.917 C 1222.117 924.938,1225.028 921.044,1226.535 919.265 C 1228.042 917.485,1231.481 908.441,1234.177 899.167 C 1236.873 889.893,1240.095 881.677,1241.337 880.910 C 1242.579 880.142,1260.449 895.478,1281.048 914.990 C 1316.385 948.462,1319.093 950.391,1328.993 949.156 C 1344.801 947.183,1350.071 939.906,1353.087 915.885 C 1354.538 904.337,1357.075 891.651,1358.726 887.694 C 1360.377 883.737,1366.591 864.300,1372.533 844.500 C 1378.476 824.700,1384.612 805.399,1386.169 801.609 C 1389.312 793.958,1389.473 770.087,1386.451 759.969 C 1385.378 756.377,1373.025 738.986,1359.000 721.323 C 1318.453 670.256,1307.972 656.199,1302.094 645.000 C 1299.064 639.225,1293.058 631.209,1288.748 627.186 C 1282.206 621.079,1279.570 620.345,1272.770 622.736 C 1268.292 624.311,1263.221 628.277,1261.502 631.550 C 1259.784 634.822,1254.355 643.575,1249.439 651.000 C 1244.522 658.425,1239.825 665.970,1239.000 667.767 C 1234.620 677.307,1204.255 723.000,1202.295 723.000 C 1201.033 723.000,1199.918 719.963,1199.817 716.250 C 1199.716 712.538,1197.329 702.152,1194.512 693.170 L 1189.390 676.841 1171.445 676.124 C 1147.453 675.166,1131.419 672.083,1128.768 667.919 C 1126.442 664.264,1125.964 662.526,1125.375 655.575 C 1125.094 652.263,1122.660 651.618,1115.696 653.011 C 1109.347 654.281,1105.551 653.542,1103.742 650.686 C 1100.042 644.842,1100.270 600.000,1104.000 600.000 C 1110.339 600.000,1106.626 591.557,1099.500 589.768 C 1089.508 587.260,1077.000 590.628,1077.000 595.825 C 1077.000 598.121,1078.350 600.000,1080.000 600.000 C 1081.765 600.000,1083.000 610.500,1083.000 625.500 C 1083.000 639.525,1082.033 651.000,1080.850 651.000 C 1075.394 651.000,1053.000 640.881,1053.000 638.415 C 1053.000 636.892,1051.650 636.480,1050.000 637.500 C 1048.350 638.520,1047.000 637.024,1047.000 634.177 C 1047.000 631.330,1046.213 629.788,1045.250 630.750 C 1043.065 632.935,1032.000 622.140,1032.000 617.823 C 1032.000 616.076,1030.650 615.480,1029.000 616.500 C 1027.350 617.520,1025.979 615.912,1025.954 612.927 C 1025.915 608.326,1025.466 608.185,1023.000 612.000 C 1020.685 615.583,1020.043 614.971,1019.854 609.000 C 1019.724 604.875,1019.181 597.056,1018.647 591.625 C 1018.051 585.550,1019.487 579.941,1022.381 577.048 C 1026.651 572.777,1026.620 572.086,1022.042 569.523 C 1017.695 567.091,1017.000 560.931,1017.000 524.851 C 1017.000 498.950,1015.857 483.000,1014.000 483.000 C 1010.354 483.000,1010.466 481.224,1010.970 531.089 L 1011.381 571.678 987.191 578.047 L 963.000 584.417 963.000 572.709 C 963.000 566.269,964.350 561.000,966.000 561.000 C 971.159 561.000,969.279 555.360,963.000 552.000 C 958.737 549.719,955.263 549.719,951.000 552.000 C 943.899 555.801,942.967 551.422,949.690 545.843 C 953.929 542.324,953.903 541.684,949.421 539.176 C 944.864 536.626,944.641 523.451,946.659 376.201 C 948.183 264.940,947.892 216.000,945.705 216.000 C 943.973 216.000,941.964 223.763,941.240 233.250 M950.954 570.750 C 950.929 576.113,949.599 582.525,948.000 585.000 C 945.897 588.255,945.079 585.556,945.046 575.250 C 945.021 567.413,946.350 561.000,948.000 561.000 C 949.650 561.000,950.979 565.388,950.954 570.750 M1010.887 592.711 L 1006.695 600.543 1001.617 594.272 C 998.824 590.822,994.797 588.000,992.669 588.000 C 986.225 588.000,993.775 582.620,1002.000 581.351 C 1012.794 579.685,1015.801 583.529,1010.887 592.711 M993.495 595.265 C 994.593 596.785,990.885 600.498,985.256 603.515 C 972.212 610.506,971.946 610.463,972.688 601.500 C 973.331 593.734,976.278 591.787,979.500 597.000 C 980.520 598.650,982.834 600.000,984.642 600.000 C 986.450 600.000,985.693 597.528,982.958 594.507 C 980.224 591.485,978.878 588.122,979.967 587.033 C 981.899 585.101,989.498 589.725,993.495 595.265 M968.701 596.250 C 968.536 599.138,967.321 604.875,966.000 609.000 C 963.960 615.371,963.553 614.581,963.299 603.750 C 963.135 596.738,964.350 591.000,966.000 591.000 C 967.650 591.000,968.865 593.363,968.701 596.250 M927.000 604.298 C 927.000 606.662,924.300 609.453,921.000 610.500 C 917.166 611.717,915.000 615.039,915.000 619.702 C 915.000 627.703,917.845 628.955,923.400 623.400 C 926.200 620.600,927.000 620.842,927.000 624.487 C 927.000 628.200,921.806 629.596,902.039 631.200 C 873.119 633.547,867.000 632.002,867.000 622.356 C 867.000 613.552,868.779 612.507,895.027 605.891 C 921.797 599.144,927.000 598.885,927.000 604.298 M997.085 613.500 C 998.332 616.751,996.756 618.000,991.406 618.000 C 982.919 618.000,981.401 613.119,989.250 611.068 C 992.138 610.313,994.693 609.539,994.929 609.348 C 995.165 609.157,996.135 611.025,997.085 613.500 M1009.500 615.000 C 1010.520 616.650,1009.924 618.000,1008.177 618.000 C 1006.430 618.000,1005.000 616.650,1005.000 615.000 C 1005.000 613.350,1005.595 612.000,1006.323 612.000 C 1007.051 612.000,1008.480 613.350,1009.500 615.000 M861.000 622.841 C 861.000 630.477,860.628 630.629,846.750 628.670 C 820.939 625.026,819.031 623.187,837.000 619.270 C 860.677 614.109,861.000 614.157,861.000 622.841 M1005.000 630.422 C 1005.000 631.943,999.938 632.918,993.750 632.589 C 980.554 631.887,976.066 630.050,980.640 627.223 C 985.173 624.421,1005.000 627.025,1005.000 630.422 M1013.049 633.563 C 1012.092 635.956,1011.381 635.245,1011.237 631.750 C 1011.107 628.588,1011.816 626.816,1012.813 627.813 C 1013.809 628.809,1013.916 631.397,1013.049 633.563 M1022.049 633.563 C 1021.092 635.956,1020.381 635.245,1020.237 631.750 C 1020.107 628.588,1020.816 626.816,1021.813 627.813 C 1022.809 628.809,1022.916 631.397,1022.049 633.563 M791.492 637.023 C 792.071 640.061,789.514 645.370,785.809 648.821 C 779.368 654.823,779.323 655.184,784.787 657.104 C 790.139 658.985,790.082 659.245,783.882 661.216 C 780.242 662.374,773.829 667.402,769.632 672.391 L 762.000 681.460 762.000 667.730 C 762.000 659.051,763.324 654.000,765.600 654.000 C 768.400 654.000,768.400 653.200,765.600 650.400 C 759.861 644.661,761.375 639.535,770.250 634.656 C 780.756 628.880,790.138 629.925,791.492 637.023 M1035.000 636.227 C 1035.000 637.648,1032.975 638.035,1030.500 637.085 C 1028.025 636.135,1026.000 634.195,1026.000 632.773 C 1026.000 631.352,1028.025 630.965,1030.500 631.915 C 1032.975 632.865,1035.000 634.805,1035.000 636.227 M825.000 635.398 C 825.000 636.716,830.063 637.327,836.250 636.755 C 849.400 635.539,844.206 640.392,829.500 643.061 C 824.550 643.960,817.628 645.553,814.118 646.601 C 808.548 648.265,807.924 647.520,809.217 640.754 C 810.317 634.999,812.543 633.000,817.850 633.000 C 821.782 633.000,825.000 634.079,825.000 635.398 M744.000 658.500 C 744.000 660.975,743.469 663.000,742.821 663.000 C 742.172 663.000,740.865 660.975,739.915 658.500 C 738.965 656.025,739.496 654.000,741.094 654.000 C 742.692 654.000,744.000 656.025,744.000 658.500 M890.546 659.222 C 882.609 661.865,874.201 662.896,871.046 661.613 C 865.761 659.462,865.782 659.240,871.500 656.889 C 874.800 655.532,883.575 654.456,891.000 654.498 L 904.500 654.574 890.546 659.222 M1013.547 656.656 C 1018.872 660.031,998.987 663.958,991.372 661.036 C 986.223 659.060,986.241 658.832,991.719 656.686 C 999.624 653.590,1008.688 653.577,1013.547 656.656 M862.500 660.000 C 861.480 661.650,856.755 663.000,852.000 663.000 C 847.245 663.000,842.520 661.650,841.500 660.000 C 840.379 658.186,844.528 657.000,852.000 657.000 C 859.472 657.000,863.621 658.186,862.500 660.000 M1030.500 660.000 C 1022.306 663.521,1020.000 663.521,1020.000 660.000 C 1020.000 658.350,1023.713 657.095,1028.250 657.211 C 1035.561 657.398,1035.817 657.715,1030.500 660.000 M916.085 664.500 C 914.960 667.431,910.548 668.915,903.429 668.756 L 892.500 668.513 901.500 664.392 C 913.400 658.943,918.204 658.978,916.085 664.500 M981.000 666.000 C 984.639 668.352,984.208 668.917,978.750 668.954 C 975.038 668.979,972.000 667.650,972.000 666.000 C 972.000 662.241,975.184 662.241,981.000 666.000 M834.047 669.730 C 850.777 674.952,849.679 677.359,827.525 684.024 C 820.835 686.037,819.270 685.382,817.816 679.962 C 813.726 664.717,815.136 663.828,834.047 669.730 M1050.000 672.057 C 1050.000 677.145,1048.679 677.798,1041.750 676.135 C 1030.447 673.424,1030.022 672.572,1038.314 669.255 C 1048.788 665.065,1050.000 665.356,1050.000 672.057 M1082.954 674.427 C 1082.914 678.799,1082.506 678.878,1080.000 675.000 C 1076.203 669.125,1076.203 665.153,1080.000 667.500 C 1081.650 668.520,1082.979 671.637,1082.954 674.427 M743.117 687.750 C 742.402 691.463,741.817 688.425,741.817 681.000 C 741.817 673.575,742.402 670.538,743.117 674.250 C 743.832 677.963,743.832 684.038,743.117 687.750 M788.410 684.000 C 787.923 690.387,786.167 693.000,782.362 693.000 C 775.739 693.000,775.399 686.030,781.714 679.714 C 788.288 673.141,789.193 673.720,788.410 684.000 M909.750 679.987 C 907.688 680.819,904.313 680.819,902.250 679.987 C 900.188 679.155,901.875 678.474,906.000 678.474 C 910.125 678.474,911.813 679.155,909.750 679.987 M1008.074 685.695 C 1011.711 695.260,1011.879 710.103,1008.376 712.268 C 1006.932 713.160,998.495 711.431,989.626 708.426 C 973.876 703.089,973.478 702.670,972.578 690.481 L 971.655 678.000 988.402 678.000 C 1003.618 678.000,1005.416 678.703,1008.074 685.695 M749.068 695.250 C 748.313 698.138,747.696 695.775,747.696 690.000 C 747.696 684.225,748.313 681.863,749.068 684.750 C 749.823 687.638,749.823 692.363,749.068 695.250 M1044.690 686.553 C 1048.276 690.037,1041.132 711.000,1036.359 711.000 C 1033.962 711.000,1030.988 711.183,1029.750 711.407 C 1025.578 712.163,1020.513 688.840,1023.919 684.557 C 1026.996 680.688,1039.933 681.930,1044.690 686.553 M1075.500 684.000 C 1076.520 685.650,1075.924 687.000,1074.177 687.000 C 1072.430 687.000,1071.000 685.650,1071.000 684.000 C 1071.000 682.350,1071.595 681.000,1072.323 681.000 C 1073.051 681.000,1074.480 682.350,1075.500 684.000 M850.329 690.750 C 849.188 694.463,848.085 697.709,847.877 697.964 C 847.327 698.639,830.148 699.691,825.750 699.318 C 819.958 698.827,821.318 693.012,827.250 692.905 C 830.138 692.852,835.121 690.827,838.323 688.405 C 847.250 681.653,852.793 682.736,850.329 690.750 M886.500 687.000 C 889.800 688.418,890.923 689.673,888.995 689.789 C 887.068 689.905,883.530 690.753,881.132 691.672 C 878.735 692.592,875.967 691.242,874.981 688.672 C 873.011 683.537,877.070 682.948,886.500 687.000 M1108.500 687.000 C 1109.520 688.650,1108.924 690.000,1107.177 690.000 C 1105.430 690.000,1104.000 688.650,1104.000 687.000 C 1104.000 685.350,1104.595 684.000,1105.323 684.000 C 1106.051 684.000,1107.480 685.350,1108.500 687.000 M1159.438 694.519 C 1165.669 699.611,1167.425 702.775,1165.233 704.967 C 1163.042 707.158,1159.653 705.375,1154.045 699.081 C 1141.382 684.869,1144.452 682.274,1159.438 694.519 M1055.079 701.193 C 1054.318 704.112,1053.646 702.450,1053.585 697.500 C 1053.524 692.550,1054.146 690.162,1054.968 692.193 C 1055.790 694.224,1055.840 698.274,1055.079 701.193 M891.000 705.000 C 891.000 716.357,883.073 717.213,878.926 706.305 C 874.985 695.940,874.959 696.000,883.500 696.000 C 889.833 696.000,891.000 697.400,891.000 705.000 M748.196 713.550 C 745.999 716.446,741.005 709.829,741.044 704.073 C 741.087 697.769,741.250 697.807,745.041 705.000 C 747.215 709.125,748.635 712.973,748.196 713.550 M861.000 707.100 C 861.000 713.133,860.133 714.333,857.602 711.802 C 855.733 709.933,855.015 706.288,856.007 703.702 C 858.754 696.545,861.000 698.074,861.000 707.100 M845.188 706.813 C 844.191 707.809,841.603 707.916,839.438 707.049 C 837.044 706.092,837.755 705.381,841.250 705.237 C 844.413 705.107,846.184 705.816,845.188 706.813 M873.000 709.500 C 873.000 711.975,871.692 714.000,870.094 714.000 C 868.496 714.000,867.965 711.975,868.915 709.500 C 869.865 707.025,871.172 705.000,871.821 705.000 C 872.469 705.000,873.000 707.025,873.000 709.500 M902.049 711.563 C 901.092 713.956,900.381 713.245,900.237 709.750 C 900.107 706.588,900.816 704.816,901.813 705.813 C 902.809 706.809,902.916 709.397,902.049 711.563 M1149.000 711.177 C 1149.000 712.730,1147.017 714.000,1144.594 714.000 C 1141.918 714.000,1140.864 712.240,1141.909 709.517 C 1143.679 704.902,1149.000 706.148,1149.000 711.177 M1074.000 711.000 C 1074.000 712.650,1072.570 714.000,1070.823 714.000 C 1069.076 714.000,1068.480 712.650,1069.500 711.000 C 1070.520 709.350,1071.949 708.000,1072.677 708.000 C 1073.405 708.000,1074.000 709.350,1074.000 711.000 M1234.273 711.368 C 1233.128 713.220,1230.672 721.577,1228.815 729.939 L 1225.439 745.143 1219.941 736.752 L 1214.443 728.361 1224.310 718.180 C 1234.358 707.813,1238.015 705.313,1234.273 711.368 M838.106 717.894 C 839.147 716.853,840.000 718.925,840.000 722.500 C 840.000 730.611,832.315 731.062,828.106 723.197 C 823.653 714.878,824.237 713.381,830.606 716.789 C 833.689 718.439,837.064 718.936,838.106 717.894 M924.000 717.000 C 924.000 718.650,922.650 720.000,921.000 720.000 C 919.350 720.000,918.000 718.650,918.000 717.000 C 918.000 715.350,919.350 714.000,921.000 714.000 C 922.650 714.000,924.000 715.350,924.000 717.000 M979.500 717.000 C 980.520 718.650,979.249 720.000,976.677 720.000 C 974.105 720.000,972.000 718.650,972.000 717.000 C 972.000 715.350,973.270 714.000,974.823 714.000 C 976.376 714.000,978.480 715.350,979.500 717.000 M1159.289 722.659 C 1161.063 725.529,1151.214 728.959,1141.500 728.853 C 1136.179 728.795,1136.349 728.302,1143.000 724.500 C 1151.723 719.513,1156.978 718.920,1159.289 722.659 M856.500 726.000 C 855.480 727.650,853.376 729.000,851.823 729.000 C 850.270 729.000,849.000 727.650,849.000 726.000 C 849.000 724.350,851.105 723.000,853.677 723.000 C 856.249 723.000,857.520 724.350,856.500 726.000 M922.479 728.966 C 923.530 730.666,922.326 731.169,919.656 730.145 C 914.459 728.150,913.508 726.000,917.823 726.000 C 919.376 726.000,921.471 727.335,922.479 728.966 M980.188 727.813 C 979.191 728.809,976.603 728.916,974.438 728.049 C 972.044 727.092,972.755 726.381,976.250 726.237 C 979.413 726.107,981.184 726.816,980.188 727.813 M1008.000 738.000 C 1005.525 739.599,1000.800 740.908,997.500 740.908 C 992.532 740.908,992.274 740.408,996.000 738.000 C 998.475 736.401,1003.200 735.092,1006.500 735.092 C 1011.468 735.092,1011.726 735.592,1008.000 738.000 M1135.694 758.306 C 1134.056 759.944,1122.000 748.963,1122.000 745.834 C 1122.000 745.055,1125.038 743.986,1128.750 743.459 C 1133.899 742.727,1135.731 744.166,1136.476 749.524 C 1137.012 753.388,1136.661 757.339,1135.694 758.306 M1121.250 758.808 C 1132.319 771.661,1134.000 775.462,1134.000 787.632 C 1134.000 801.021,1133.669 801.567,1126.630 799.801 C 1122.576 798.783,1114.480 795.131,1108.638 791.684 C 1098.045 785.434,1098.021 785.370,1099.759 768.458 C 1102.830 738.561,1103.539 738.243,1121.250 758.808 M1154.748 748.370 C 1161.986 752.113,1164.116 756.400,1169.599 778.261 C 1173.120 792.298,1176.000 804.584,1176.000 805.564 C 1176.000 806.544,1167.923 798.155,1158.052 786.923 C 1142.999 769.794,1140.096 764.685,1140.052 755.250 C 1139.995 742.882,1142.168 741.864,1154.748 748.370 M1202.919 776.073 C 1202.964 778.038,1201.506 780.569,1199.680 781.698 C 1197.259 783.194,1197.267 784.311,1199.712 785.822 C 1201.909 787.180,1200.470 790.331,1195.532 794.970 L 1188.000 802.046 1188.000 791.442 C 1188.000 785.609,1187.219 774.237,1186.265 766.169 L 1184.530 751.500 1193.684 762.000 C 1198.719 767.775,1202.875 774.108,1202.919 776.073 M1224.000 771.823 C 1224.000 781.709,1216.894 775.577,1215.869 764.808 C 1214.945 755.092,1215.150 754.834,1219.444 760.323 C 1221.950 763.526,1224.000 768.701,1224.000 771.823 M850.500 765.000 C 851.520 766.650,850.329 768.000,847.854 768.000 C 845.379 768.000,842.520 766.650,841.500 765.000 C 840.480 763.350,841.671 762.000,844.146 762.000 C 846.621 762.000,849.480 763.350,850.500 765.000 M1028.789 774.750 C 1028.673 778.463,1027.418 784.200,1026.000 787.500 C 1024.003 792.147,1023.374 790.625,1023.211 780.750 C 1023.095 773.738,1024.350 768.000,1026.000 768.000 C 1027.650 768.000,1028.905 771.038,1028.789 774.750 M1047.878 773.966 C 1047.020 777.248,1045.121 779.193,1043.659 778.289 C 1039.421 775.670,1040.584 768.000,1045.219 768.000 C 1047.953 768.000,1048.889 770.100,1047.878 773.966 M1007.789 797.250 L 1007.577 823.500 1000.443 805.500 C 996.520 795.600,993.240 785.624,993.155 783.331 C 993.004 779.275,1001.227 771.287,1005.750 771.095 C 1006.988 771.043,1007.905 782.813,1007.789 797.250 M906.255 792.314 C 903.612 798.921,903.365 798.997,903.190 793.250 C 903.086 789.813,903.900 786.100,905.000 785.000 C 908.583 781.417,909.193 784.970,906.255 792.314 M1154.598 795.254 C 1165.167 807.548,1164.221 808.694,1146.449 805.140 C 1138.978 803.646,1137.384 802.022,1138.351 796.890 C 1139.013 793.375,1139.654 788.813,1139.777 786.750 C 1140.140 780.649,1143.894 782.803,1154.598 795.254 M1223.954 791.250 C 1223.918 797.679,1223.266 798.507,1221.000 795.000 C 1217.207 789.130,1217.207 783.000,1221.000 783.000 C 1222.650 783.000,1223.979 786.713,1223.954 791.250 M919.977 790.661 C 921.861 795.572,912.675 819.000,908.865 819.000 C 907.642 819.000,905.865 816.975,904.915 814.500 C 903.965 812.025,904.496 810.000,906.094 810.000 C 907.692 810.000,908.743 808.988,908.429 807.750 C 908.114 806.513,908.896 801.113,910.167 795.750 C 912.635 785.332,917.053 783.040,919.977 790.661 M943.987 801.750 C 943.155 803.813,942.474 802.125,942.474 798.000 C 942.474 793.875,943.155 792.188,943.987 794.250 C 944.819 796.313,944.819 799.688,943.987 801.750 M1030.576 812.078 C 1025.798 820.470,1025.824 819.741,1031.030 799.500 C 1033.023 791.751,1033.485 791.414,1034.358 797.078 C 1034.916 800.695,1033.214 807.445,1030.576 812.078 M1116.189 802.313 C 1124.871 806.336,1140.549 810.545,1151.029 811.667 C 1161.509 812.790,1170.693 814.694,1171.437 815.899 C 1173.212 818.770,1131.121 861.000,1126.484 861.000 C 1124.523 861.000,1119.805 858.300,1116.000 855.000 C 1112.195 851.700,1106.550 849.000,1103.456 849.000 C 1098.339 849.000,1097.869 846.555,1098.261 822.000 C 1098.498 807.150,1099.077 795.000,1099.548 795.000 C 1100.019 795.000,1107.508 798.291,1116.189 802.313 M1227.000 807.000 C 1227.000 808.650,1225.650 810.000,1224.000 810.000 C 1222.350 810.000,1221.000 808.650,1221.000 807.000 C 1221.000 805.350,1222.350 804.000,1224.000 804.000 C 1225.650 804.000,1227.000 805.350,1227.000 807.000 M1208.405 817.607 C 1205.125 824.807,1194.375 828.002,1193.625 822.000 C 1193.419 820.350,1193.064 817.313,1192.837 815.250 C 1192.439 811.628,1205.283 806.958,1209.637 809.142 C 1210.812 809.732,1210.258 813.541,1208.405 817.607 M974.049 819.563 C 973.092 821.956,972.381 821.245,972.237 817.750 C 972.107 814.588,972.816 812.816,973.813 813.813 C 974.809 814.809,974.916 817.397,974.049 819.563 M1234.109 825.750 C 1237.406 838.051,1236.292 842.139,1231.405 835.677 C 1226.556 829.266,1225.476 819.000,1229.650 819.000 C 1231.108 819.000,1233.114 822.038,1234.109 825.750 M1181.055 829.134 C 1180.183 831.408,1180.656 834.456,1182.107 835.907 C 1183.624 837.424,1178.506 844.746,1170.057 853.144 C 1157.646 865.480,1154.147 867.436,1147.487 865.765 C 1139.652 863.798,1139.716 863.671,1158.330 844.393 C 1176.290 825.793,1184.437 820.322,1181.055 829.134 M1211.894 836.803 C 1213.603 839.994,1214.987 849.107,1214.972 857.053 L 1214.943 871.500 1207.694 859.408 C 1203.707 852.757,1199.523 843.645,1198.397 839.158 C 1196.662 832.246,1197.299 831.000,1202.569 831.000 C 1205.990 831.000,1210.186 833.611,1211.894 836.803 M888.000 843.000 C 888.000 844.650,886.650 846.000,885.000 846.000 C 883.350 846.000,882.000 844.650,882.000 843.000 C 882.000 841.350,883.350 840.000,885.000 840.000 C 886.650 840.000,888.000 841.350,888.000 843.000 M984.000 843.000 C 984.000 844.650,981.300 846.000,978.000 846.000 C 974.700 846.000,972.000 844.650,972.000 843.000 C 972.000 841.350,974.700 840.000,978.000 840.000 C 981.300 840.000,984.000 841.350,984.000 843.000 M1190.883 860.593 L 1193.581 870.000 1179.702 870.000 L 1165.823 870.000 1175.956 859.545 C 1181.530 853.795,1186.561 849.561,1187.138 850.138 C 1187.714 850.714,1189.399 855.418,1190.883 860.593 M889.500 858.000 C 888.480 859.650,886.376 861.000,884.823 861.000 C 883.270 861.000,882.000 859.650,882.000 858.000 C 882.000 856.350,884.105 855.000,886.677 855.000 C 889.249 855.000,890.520 856.350,889.500 858.000 M990.000 858.000 C 990.000 861.521,987.694 861.521,979.500 858.000 C 974.183 855.715,974.439 855.398,981.750 855.211 C 986.288 855.095,990.000 856.350,990.000 858.000 M912.000 863.823 C 912.000 865.376,910.650 867.480,909.000 868.500 C 907.350 869.520,906.000 868.249,906.000 865.677 C 906.000 863.105,907.350 861.000,909.000 861.000 C 910.650 861.000,912.000 862.270,912.000 863.823 M979.500 867.000 C 980.520 868.650,979.329 870.000,976.854 870.000 C 974.379 870.000,971.520 868.650,970.500 867.000 C 969.480 865.350,970.671 864.000,973.146 864.000 C 975.621 864.000,978.480 865.350,979.500 867.000 M1051.179 868.745 C 1054.222 876.674,1053.274 879.000,1047.000 879.000 C 1043.700 879.000,1041.000 877.760,1041.000 876.245 C 1041.000 871.315,1044.584 864.000,1047.000 864.000 C 1048.297 864.000,1050.178 866.135,1051.179 868.745 M1067.049 879.563 C 1066.092 881.956,1065.381 881.245,1065.237 877.750 C 1065.107 874.588,1065.816 872.816,1066.813 873.813 C 1067.809 874.809,1067.916 877.397,1067.049 879.563 M1003.206 891.711 C 1006.436 899.527,1008.168 906.832,1007.056 907.944 C 1004.830 910.170,972.231 903.112,971.617 900.271 C 967.220 879.934,969.665 875.486,984.639 876.576 C 996.675 877.452,997.638 878.237,1003.206 891.711 M1197.892 888.088 C 1199.330 893.587,1198.479 893.986,1189.081 892.223 C 1183.359 891.150,1173.012 888.501,1166.089 886.337 L 1153.500 882.401 1174.900 882.201 C 1193.969 882.022,1196.474 882.663,1197.892 888.088 M1056.555 891.795 C 1060.541 898.070,1059.444 899.285,1045.500 904.036 C 1031.089 908.946,1030.980 908.852,1033.933 894.087 C 1035.715 885.173,1036.577 884.565,1045.034 886.257 C 1050.076 887.265,1055.261 889.758,1056.555 891.795 M1287.969 903.000 C 1298.055 912.900,1305.000 920.936,1303.403 920.858 C 1298.748 920.631,1261.213 885.000,1265.630 885.000 C 1267.831 885.000,1277.883 893.100,1287.969 903.000 M1177.343 898.101 C 1213.073 908.529,1211.646 911.028,1165.947 918.053 C 1144.381 921.368,1132.913 919.875,1134.779 913.995 C 1135.389 912.073,1138.838 909.167,1142.444 907.539 C 1149.785 904.223,1150.759 899.959,1145.400 894.600 C 1139.806 889.006,1150.012 890.125,1177.343 898.101 M1101.281 906.919 C 1098.906 909.294,1098.000 908.515,1098.000 904.100 C 1098.000 896.169,1102.195 891.959,1103.531 898.550 C 1104.099 901.348,1103.086 905.114,1101.281 906.919 M886.987 909.750 C 886.155 911.813,885.474 910.125,885.474 906.000 C 885.474 901.875,886.155 900.188,886.987 902.250 C 887.819 904.313,887.819 907.688,886.987 909.750 M921.000 907.179 C 921.000 911.128,919.018 915.119,916.596 916.048 C 910.712 918.306,909.152 914.963,912.256 906.750 C 915.620 897.847,921.000 898.111,921.000 907.179 M1062.869 918.000 C 1064.156 922.920,1063.003 923.962,1056.469 923.789 C 1052.086 923.673,1045.834 922.537,1042.577 921.264 C 1037.222 919.171,1037.510 918.638,1045.577 915.711 C 1058.588 910.990,1061.124 911.326,1062.869 918.000 M988.500 924.000 C 980.306 927.521,978.000 927.521,978.000 924.000 C 978.000 922.350,981.713 921.095,986.250 921.211 C 993.561 921.398,993.817 921.715,988.500 924.000 M918.750 925.987 C 916.688 926.819,913.313 926.819,911.250 925.987 C 909.188 925.155,910.875 924.474,915.000 924.474 C 919.125 924.474,920.813 925.155,918.750 925.987 M1037.345 927.000 C 1040.298 927.000,1041.083 928.033,1039.350 929.637 C 1036.136 932.610,994.611 936.389,997.560 933.440 C 1000.574 930.426,1024.095 924.696,1028.495 925.904 C 1030.693 926.507,1034.675 927.000,1037.345 927.000 M884.750 931.922 C 885.438 932.515,881.725 933.000,876.500 933.000 C 871.275 933.000,867.000 931.624,867.000 929.943 C 867.000 927.252,881.167 928.832,884.750 931.922 M1080.187 986.067 C 1079.644 1036.459,1077.979 1039.612,1055.436 1032.927 L 1041.371 1028.756 1049.861 1008.628 C 1054.531 997.558,1062.702 977.968,1068.020 965.095 C 1073.338 952.222,1078.352 942.352,1079.161 943.161 C 1079.971 943.971,1080.433 963.279,1080.187 986.067 M1047.000 948.121 C 1047.000 949.838,1044.513 954.901,1041.473 959.371 C 1038.433 963.842,1030.761 975.600,1024.424 985.500 L 1012.902 1003.500 1001.541 979.500 C 995.292 966.300,990.139 954.488,990.090 953.250 C 990.040 952.013,995.738 950.922,1002.750 950.827 C 1009.763 950.732,1020.900 949.537,1027.500 948.172 C 1044.647 944.625,1047.000 944.619,1047.000 948.121 M867.750 955.987 C 865.688 956.819,862.313 956.819,860.250 955.987 C 858.188 955.155,859.875 954.474,864.000 954.474 C 868.125 954.474,869.813 955.155,867.750 955.987 M981.112 968.250 C 991.941 992.387,999.570 1012.651,996.641 1009.500 C 992.441 1004.981,969.000 960.467,969.000 957.011 C 969.000 949.451,975.302 955.298,981.112 968.250 M914.250 962.831 C 925.015 971.811,921.430 983.200,910.197 975.704 C 906.631 973.325,902.640 956.935,905.666 957.100 C 906.675 957.155,910.538 959.734,914.250 962.831 M888.000 989.707 C 888.000 1010.017,887.828 1010.473,879.000 1013.550 C 872.331 1015.875,870.000 1015.776,870.000 1013.168 C 870.000 1009.130,885.422 969.000,886.974 969.000 C 887.538 969.000,888.000 978.318,888.000 989.707 M865.323 978.556 C 864.179 982.162,861.482 989.250,859.329 994.306 L 855.416 1003.500 850.532 991.926 C 847.846 985.560,846.065 980.088,846.574 979.765 C 849.622 977.835,862.896 972.373,864.952 972.203 C 866.301 972.091,866.468 974.950,865.323 978.556 M941.079 986.193 C 940.318 989.112,939.646 987.450,939.585 982.500 C 939.524 977.550,940.146 975.162,940.968 977.193 C 941.790 979.224,941.840 983.274,941.079 986.193 M902.117 999.750 C 901.402 1003.463,900.817 1000.425,900.817 993.000 C 900.817 985.575,901.402 982.538,902.117 986.250 C 902.832 989.963,902.832 996.038,902.117 999.750 M912.893 989.000 C 911.487 992.663,910.692 992.757,908.628 989.502 C 904.837 983.520,905.476 980.987,910.311 982.842 C 912.681 983.752,913.844 986.523,912.893 989.000 M1035.768 1002.844 C 1027.977 1022.671,1020.416 1030.702,1024.369 1014.952 C 1026.513 1006.410,1041.053 980.053,1042.709 981.709 C 1043.247 982.247,1040.124 991.758,1035.768 1002.844 M979.658 1010.321 C 979.218 1010.772,976.641 1010.290,973.929 1009.250 C 970.760 1008.033,969.045 1003.992,969.126 997.929 L 969.251 988.500 974.854 999.000 C 977.936 1004.775,980.097 1009.869,979.658 1010.321 M840.990 1025.991 C 839.621 1027.240,831.422 1030.559,822.770 1033.366 C 808.757 1037.912,806.547 1037.976,802.520 1033.949 C 795.078 1026.507,797.298 1020.540,810.750 1011.822 C 817.763 1007.277,824.709 1001.627,826.186 999.266 C 828.226 996.007,830.629 998.431,836.176 1009.347 C 840.194 1017.252,842.360 1024.742,840.990 1025.991 M977.188 1018.813 C 976.191 1019.809,973.603 1019.916,971.438 1019.049 C 969.044 1018.092,969.755 1017.381,973.250 1017.237 C 976.413 1017.107,978.184 1017.816,977.188 1018.813 M885.000 1030.787 C 885.000 1034.006,874.756 1050.000,872.694 1050.000 C 870.257 1050.000,867.422 1032.578,869.517 1030.483 C 871.625 1028.375,885.000 1028.638,885.000 1030.787 M998.572 1042.930 C 1006.711 1059.681,1004.940 1062.310,984.177 1064.305 L 969.000 1065.763 969.000 1047.382 L 969.000 1029.000 980.402 1029.000 C 990.996 1029.000,992.284 1029.987,998.572 1042.930 M1021.672 1037.132 C 1020.753 1039.530,1020.000 1042.730,1020.000 1044.245 C 1020.000 1045.760,1018.807 1047.000,1017.350 1047.000 C 1014.505 1047.000,1010.955 1033.045,1013.223 1030.777 C 1016.220 1027.780,1023.236 1033.057,1021.672 1037.132 M851.518 1042.641 C 857.114 1054.922,856.033 1059.973,848.250 1057.916 C 844.538 1056.935,834.413 1054.537,825.750 1052.588 C 817.088 1050.640,810.000 1048.147,810.000 1047.049 C 810.000 1044.840,835.739 1035.740,843.268 1035.287 C 845.891 1035.129,849.604 1038.439,851.518 1042.641 M1058.702 1042.146 L 1068.905 1045.835 1050.452 1052.135 C 1031.182 1058.715,1030.140 1058.283,1034.926 1045.695 C 1038.148 1037.220,1043.055 1036.487,1058.702 1042.146 M919.646 1052.990 C 919.532 1062.351,918.348 1064.983,914.250 1064.990 C 911.363 1064.996,909.000 1063.857,909.000 1062.461 C 909.000 1059.864,917.892 1041.000,919.116 1041.000 C 919.488 1041.000,919.727 1046.396,919.646 1052.990 M942.000 1053.177 C 942.000 1058.030,940.650 1062.000,939.000 1062.000 C 937.350 1062.000,936.000 1057.195,936.000 1051.323 C 936.000 1044.969,937.215 1041.397,939.000 1042.500 C 940.650 1043.520,942.000 1048.324,942.000 1053.177 M888.000 1059.000 C 888.000 1060.650,886.650 1062.000,885.000 1062.000 C 883.350 1062.000,882.000 1060.650,882.000 1059.000 C 882.000 1057.350,883.350 1056.000,885.000 1056.000 C 886.650 1056.000,888.000 1057.350,888.000 1059.000 M1058.259 1081.872 C 1051.006 1093.218,1039.372 1112.288,1032.404 1124.250 C 1022.065 1142.000,1018.367 1146.000,1012.293 1146.000 C 1007.344 1146.000,1003.984 1143.740,1002.261 1139.250 C 1000.836 1135.538,995.469 1123.354,990.335 1112.175 C 985.201 1100.996,981.000 1090.711,981.000 1089.318 C 981.000 1087.926,998.888 1081.001,1020.750 1073.929 C 1042.613 1066.856,1061.783 1059.929,1063.350 1058.535 C 1064.918 1057.141,1067.380 1057.180,1068.822 1058.622 C 1070.319 1060.119,1065.784 1070.101,1058.259 1081.872 M852.286 1071.190 L 884.072 1080.735 871.548 1112.618 C 854.228 1156.709,852.607 1156.491,828.750 1106.855 C 808.876 1065.506,806.594 1057.606,815.250 1060.120 C 818.138 1060.959,834.804 1065.940,852.286 1071.190 M918.000 1074.638 C 918.000 1077.956,909.720 1077.592,907.612 1074.182 C 906.654 1072.631,908.599 1071.569,911.935 1071.820 C 915.271 1072.071,918.000 1073.340,918.000 1074.638 M942.000 1072.323 C 942.000 1073.051,940.650 1074.480,939.000 1075.500 C 937.350 1076.520,936.000 1075.924,936.000 1074.177 C 936.000 1072.430,937.350 1071.000,939.000 1071.000 C 940.650 1071.000,942.000 1071.595,942.000 1072.323 M985.500 1074.000 C 977.212 1077.562,972.000 1077.562,972.000 1074.000 C 972.000 1072.350,976.388 1071.095,981.750 1071.211 C 989.921 1071.388,990.528 1071.839,985.500 1074.000 M815.633 1118.254 C 822.435 1133.519,828.000 1147.129,828.000 1148.499 C 828.000 1149.868,822.048 1152.351,814.774 1154.016 C 802.233 1156.885,801.728 1156.749,805.024 1151.388 C 807.883 1146.738,807.400 1144.826,802.305 1140.617 C 798.898 1137.803,796.366 1133.813,796.680 1131.750 C 796.993 1129.688,797.419 1118.280,797.625 1106.400 C 797.843 1093.821,799.100 1085.990,800.633 1087.650 C 802.082 1089.218,808.832 1102.989,815.633 1118.254 M915.000 1089.000 C 918.906 1091.524,918.849 1091.914,914.571 1091.954 C 907.524 1092.020,905.045 1100.973,910.428 1106.920 C 915.384 1112.397,916.729 1128.000,912.245 1128.000 C 903.040 1128.000,901.523 1124.494,902.506 1105.474 C 903.520 1085.837,905.686 1082.981,915.000 1089.000 M1080.000 1111.500 C 1080.000 1132.399,1079.171 1137.000,1075.406 1137.000 C 1068.274 1137.000,1066.693 1145.583,1072.618 1152.130 C 1075.558 1155.379,1077.320 1158.680,1076.534 1159.466 C 1075.356 1160.644,1057.553 1155.572,1053.281 1152.842 C 1052.099 1152.086,1077.746 1086.104,1079.250 1086.035 C 1079.663 1086.016,1080.000 1097.475,1080.000 1111.500 M985.244 1137.310 C 986.304 1141.265,983.146 1137.075,978.227 1128.000 C 973.308 1118.925,969.233 1108.800,969.171 1105.500 C 969.055 1099.297,981.833 1124.587,985.244 1137.310 M885.000 1134.000 C 885.000 1139.856,883.483 1143.000,880.656 1143.000 C 877.132 1143.000,876.904 1141.301,879.450 1134.000 C 881.175 1129.050,883.130 1125.000,883.793 1125.000 C 884.457 1125.000,885.000 1129.050,885.000 1134.000 M605.913 1144.605 C 603.730 1147.235,604.243 1148.835,607.694 1150.159 C 610.360 1151.182,613.615 1151.356,614.927 1150.545 C 616.240 1149.734,618.603 1169.642,620.180 1194.785 L 623.047 1240.500 623.523 1199.250 C 623.785 1176.563,624.771 1158.000,625.714 1158.000 C 626.657 1158.000,629.695 1160.264,632.464 1163.031 C 636.616 1167.179,637.763 1176.481,639.000 1216.039 C 640.130 1252.180,641.481 1264.342,644.477 1265.334 C 647.704 1266.403,648.163 1258.524,646.905 1223.576 C 646.053 1199.884,646.045 1183.538,646.887 1187.250 C 647.946 1191.922,650.607 1194.000,655.532 1194.000 C 659.444 1194.000,663.255 1195.013,664.000 1196.250 C 665.909 1199.422,667.825 1283.856,666.000 1284.392 C 665.175 1284.634,652.758 1283.166,638.407 1281.129 C 604.070 1276.255,603.036 1274.754,606.286 1234.500 C 607.619 1218.000,608.619 1195.725,608.509 1185.000 C 608.336 1168.062,607.986 1166.879,605.842 1176.000 C 598.167 1208.661,597.638 1208.616,596.932 1175.250 C 596.557 1157.513,595.994 1141.313,595.680 1139.250 C 594.587 1132.049,597.639 1130.648,603.287 1135.760 C 607.330 1139.418,608.090 1141.981,605.913 1144.605 M911.250 1137.750 C 910.563 1139.813,908.200 1141.500,906.000 1141.500 C 903.800 1141.500,901.438 1139.813,900.750 1137.750 C 900.006 1135.519,902.133 1134.000,906.000 1134.000 C 909.867 1134.000,911.994 1135.519,911.250 1137.750 M1039.356 1143.279 C 1036.717 1148.382,1033.874 1151.874,1033.039 1151.039 C 1031.536 1149.536,1040.547 1134.000,1042.922 1134.000 C 1043.600 1134.000,1041.995 1138.175,1039.356 1143.279 M658.941 1148.296 C 662.159 1150.357,664.138 1158.224,663.345 1165.803 C 663.155 1167.619,659.288 1168.969,654.750 1168.803 C 647.968 1168.554,646.324 1166.957,645.510 1159.826 C 644.287 1149.110,651.092 1143.268,658.941 1148.296 M728.306 1150.306 C 729.293 1151.293,728.334 1153.765,726.175 1155.800 C 723.062 1158.734,721.966 1158.724,720.875 1155.750 C 720.119 1153.688,718.183 1152.000,716.573 1152.000 C 714.963 1152.000,714.438 1153.282,715.406 1154.848 C 717.575 1158.357,698.585 1162.225,691.003 1159.818 C 687.968 1158.855,683.906 1155.539,681.977 1152.450 C 678.644 1147.112,679.667 1146.874,702.491 1147.672 C 715.703 1148.135,727.320 1149.320,728.306 1150.306 M639.000 1153.500 C 639.000 1155.975,637.815 1158.000,636.367 1158.000 C 634.919 1158.000,632.054 1155.975,630.000 1153.500 C 626.880 1149.740,627.313 1149.000,632.633 1149.000 C 636.293 1149.000,639.000 1150.913,639.000 1153.500 M677.313 1163.438 C 677.972 1165.416,675.763 1167.000,672.344 1167.000 C 668.030 1167.000,666.719 1165.616,667.964 1162.373 C 669.929 1157.253,675.461 1157.883,677.313 1163.438 M738.000 1165.750 C 738.000 1171.048,731.542 1170.125,729.688 1164.563 C 729.034 1162.603,730.638 1161.000,733.250 1161.000 C 735.863 1161.000,738.000 1163.138,738.000 1165.750 M724.358 1166.946 C 733.644 1170.477,738.512 1181.691,736.066 1193.919 L 734.282 1202.840 717.542 1187.920 C 708.335 1179.714,699.722 1173.000,698.401 1173.000 C 697.081 1173.000,696.000 1171.736,696.000 1170.190 C 696.000 1168.645,700.388 1166.836,705.750 1166.170 C 711.113 1165.505,715.750 1164.744,716.055 1164.480 C 716.360 1164.216,720.096 1165.326,724.358 1166.946 M880.500 1167.000 C 872.165 1170.582,866.286 1170.582,868.500 1167.000 C 869.520 1165.350,873.987 1164.095,878.427 1164.211 C 885.636 1164.399,885.858 1164.698,880.500 1167.000 M708.906 1191.537 L 735.000 1213.073 735.000 1253.131 C 735.000 1284.264,734.085 1293.539,730.893 1294.764 C 727.309 1296.140,675.380 1288.517,673.410 1286.326 C 670.855 1283.486,670.079 1203.121,672.583 1200.617 C 674.551 1198.649,673.936 1195.165,670.769 1190.331 C 668.134 1186.311,666.996 1181.900,668.239 1180.530 C 669.483 1179.159,668.813 1179.009,666.750 1180.196 C 664.688 1181.383,661.393 1181.361,659.430 1180.147 C 656.561 1178.375,669.464 1172.535,681.156 1170.315 C 682.067 1170.142,694.554 1179.691,708.906 1191.537 M826.500 1177.104 L 838.500 1180.746 823.967 1184.842 C 811.560 1188.339,809.043 1188.321,806.763 1184.719 C 799.355 1173.018,805.380 1170.693,826.500 1177.104 M998.402 1195.580 C 1002.031 1203.049,1005.000 1209.799,1005.000 1210.580 C 1005.000 1213.020,998.980 1212.162,982.512 1207.374 C 967.151 1202.909,966.611 1202.390,966.895 1192.374 C 967.181 1182.275,967.516 1182.000,979.497 1182.000 C 991.123 1182.000,992.170 1182.752,998.402 1195.580 M774.000 1190.500 C 774.000 1194.406,770.434 1197.004,767.533 1195.211 C 764.430 1193.294,767.105 1188.000,771.177 1188.000 C 772.730 1188.000,774.000 1189.125,774.000 1190.500 M840.610 1197.201 C 839.294 1206.168,838.945 1206.351,826.880 1204.392 C 809.147 1201.513,806.869 1197.571,821.580 1195.219 C 828.484 1194.115,834.858 1192.039,835.744 1190.606 C 839.255 1184.924,841.888 1188.493,840.610 1197.201 M874.125 1190.393 C 876.372 1194.029,870.674 1201.697,867.913 1198.752 C 866.586 1197.337,867.340 1195.525,869.589 1194.726 C 873.042 1193.500,873.042 1192.870,869.589 1190.683 C 866.867 1188.958,866.695 1188.077,869.073 1188.046 C 871.038 1188.021,873.311 1189.077,874.125 1190.393 M1105.500 1191.000 C 1106.520 1192.650,1105.924 1194.000,1104.177 1194.000 C 1102.430 1194.000,1101.000 1192.650,1101.000 1191.000 C 1101.000 1189.350,1101.595 1188.000,1102.323 1188.000 C 1103.051 1188.000,1104.480 1189.350,1105.500 1191.000 M1035.885 1200.750 C 1035.014 1205.288,1033.108 1209.000,1031.650 1209.000 C 1028.293 1209.000,1028.327 1208.160,1032.084 1198.279 C 1035.890 1188.267,1038.018 1189.650,1035.885 1200.750 M1053.000 1198.323 C 1053.000 1200.701,1051.650 1203.480,1050.000 1204.500 C 1048.350 1205.520,1047.000 1203.574,1047.000 1200.177 C 1047.000 1196.780,1048.350 1194.000,1050.000 1194.000 C 1051.650 1194.000,1053.000 1195.945,1053.000 1198.323 M852.000 1206.600 C 852.000 1211.446,851.113 1212.313,848.661 1209.861 C 846.825 1208.025,846.230 1205.055,847.338 1203.261 C 850.442 1198.240,852.000 1199.356,852.000 1206.600 M900.857 1206.047 C 899.168 1212.507,894.000 1217.312,894.000 1212.422 C 894.000 1207.306,897.552 1200.000,900.040 1200.000 C 901.359 1200.000,901.727 1202.721,900.857 1206.047 M834.000 1222.793 C 834.000 1225.107,831.509 1227.000,828.465 1227.000 C 822.479 1227.000,811.865 1217.135,814.748 1214.252 C 817.800 1211.200,834.000 1218.388,834.000 1222.793 M1053.000 1219.500 C 1053.000 1221.975,1051.055 1224.000,1048.677 1224.000 C 1043.665 1224.000,1040.282 1219.718,1043.082 1216.918 C 1046.667 1213.333,1053.000 1214.981,1053.000 1219.500 M765.131 1229.071 L 774.723 1237.142 772.535 1297.081 L 770.346 1357.020 759.753 1367.010 C 753.927 1372.504,748.585 1377.000,747.881 1377.000 C 747.177 1377.000,747.297 1363.163,748.148 1346.250 C 748.999 1329.338,749.637 1294.238,749.567 1268.250 C 749.485 1238.143,750.545 1221.000,752.489 1221.000 C 754.167 1221.000,759.856 1224.632,765.131 1229.071 M985.350 1223.613 C 980.936 1227.659,966.000 1230.471,966.000 1227.256 C 966.000 1225.685,969.713 1223.836,974.250 1223.149 C 978.788 1222.461,983.783 1221.697,985.350 1221.449 C 987.150 1221.166,987.150 1221.963,985.350 1223.613 M1003.500 1233.000 C 1002.480 1234.650,999.621 1236.000,997.146 1236.000 C 994.671 1236.000,993.480 1234.650,994.500 1233.000 C 995.520 1231.350,998.379 1230.000,1000.854 1230.000 C 1003.329 1230.000,1004.520 1231.350,1003.500 1233.000 M847.802 1271.858 C 846.778 1279.575,844.207 1291.877,842.087 1299.195 L 838.234 1312.500 833.251 1292.312 C 826.931 1266.706,829.996 1254.067,841.971 1256.356 C 849.262 1257.750,849.566 1258.558,847.802 1271.858 M1046.673 1267.275 C 1042.870 1277.793,1038.040 1281.658,1037.959 1274.250 C 1037.937 1272.188,1037.133 1267.573,1036.173 1263.996 C 1034.792 1258.844,1035.892 1257.260,1041.464 1256.377 C 1051.002 1254.864,1051.092 1255.053,1046.673 1267.275 M862.484 1299.750 C 861.390 1321.613,859.934 1340.063,859.248 1340.750 C 858.561 1341.438,858.000 1323.550,858.000 1301.000 C 858.000 1273.672,859.079 1260.000,861.236 1260.000 C 863.488 1260.000,863.868 1272.088,862.484 1299.750 M881.701 1272.927 C 881.536 1278.192,880.321 1285.875,879.000 1290.000 C 877.220 1295.558,876.521 1292.598,876.299 1278.573 C 876.111 1266.649,877.110 1260.332,879.000 1261.500 C 880.650 1262.520,881.865 1267.662,881.701 1272.927 M1002.576 1302.942 C 1001.929 1329.823,1000.633 1341.044,998.263 1340.254 C 991.009 1337.836,989.114 1322.944,994.532 1310.928 C 1001.236 1296.063,998.595 1279.838,988.383 1273.147 C 984.348 1270.504,979.011 1269.121,976.523 1270.076 C 973.807 1271.118,972.000 1270.118,972.000 1267.570 C 972.000 1264.639,976.401 1263.046,986.250 1262.414 C 994.088 1261.911,1001.175 1262.175,1002.000 1263.000 C 1002.825 1263.825,1003.084 1281.799,1002.576 1302.942 M806.842 1274.250 C 808.561 1280.438,809.974 1289.908,809.983 1295.295 C 810.003 1306.753,800.904 1341.291,798.288 1339.686 C 795.401 1337.913,798.079 1263.000,801.030 1263.000 C 802.509 1263.000,805.124 1268.063,806.842 1274.250 M912.000 1272.220 C 912.000 1279.380,910.827 1281.218,906.750 1280.444 C 903.584 1279.844,901.123 1276.185,900.551 1271.224 C 899.787 1264.606,900.812 1263.000,905.801 1263.000 C 910.722 1263.000,912.000 1264.901,912.000 1272.220 M653.003 1294.003 C 653.629 1294.629,653.359 1297.180,652.402 1299.673 C 651.309 1302.522,644.881 1304.899,635.082 1306.076 C 602.148 1310.032,599.447 1308.735,605.807 1292.007 L 608.614 1284.624 630.239 1288.744 C 642.133 1291.010,652.377 1293.377,653.003 1294.003 M1066.987 1293.750 C 1066.155 1295.813,1065.474 1294.125,1065.474 1290.000 C 1065.474 1285.875,1066.155 1284.188,1066.987 1286.250 C 1067.819 1288.313,1067.819 1291.688,1066.987 1293.750 M912.000 1298.927 C 912.000 1305.567,909.345 1315.210,906.011 1320.677 L 900.022 1330.500 899.965 1317.000 C 899.921 1306.551,899.176 1304.517,896.671 1308.000 C 893.979 1311.743,893.734 1311.575,895.217 1307.005 C 896.198 1303.982,897.000 1298.245,897.000 1294.255 C 897.000 1288.516,898.568 1287.000,904.500 1287.000 C 911.242 1287.000,912.000 1288.205,912.000 1298.927 M1026.246 1311.359 C 1022.769 1318.587,1020.679 1321.861,1021.603 1318.636 C 1022.527 1315.410,1024.117 1306.685,1025.137 1299.245 C 1026.713 1287.751,1027.410 1286.658,1029.780 1291.969 C 1031.819 1296.539,1030.869 1301.749,1026.246 1311.359 M667.500 1296.000 C 668.520 1297.650,667.924 1299.000,666.177 1299.000 C 664.430 1299.000,663.000 1297.650,663.000 1296.000 C 663.000 1294.350,663.595 1293.000,664.323 1293.000 C 665.051 1293.000,666.480 1294.350,667.500 1296.000 M701.750 1300.884 C 702.438 1301.498,696.025 1302.000,687.500 1302.000 C 678.570 1302.000,672.000 1300.650,672.000 1298.816 C 672.000 1295.927,698.239 1297.751,701.750 1300.884 M851.290 1316.973 C 850.855 1328.508,850.210 1337.958,849.856 1337.973 C 849.501 1337.988,847.810 1335.382,846.098 1332.183 C 843.207 1326.782,847.198 1296.000,850.788 1296.000 C 851.498 1296.000,851.724 1305.438,851.290 1316.973 M1067.049 1308.563 C 1066.092 1310.956,1065.381 1310.245,1065.237 1306.750 C 1065.107 1303.588,1065.816 1301.816,1066.813 1302.813 C 1067.809 1303.809,1067.916 1306.397,1067.049 1308.563 M1235.578 1315.500 C 1235.193 1322.925,1233.809 1329.000,1232.500 1329.000 C 1231.192 1329.000,1227.358 1334.418,1223.979 1341.040 C 1220.601 1347.662,1212.183 1357.176,1205.272 1362.183 C 1180.110 1380.410,1161.622 1368.990,1161.265 1335.000 C 1161.021 1311.779,1163.805 1309.281,1174.332 1323.276 C 1179.182 1329.724,1184.579 1334.948,1186.325 1334.885 C 1188.071 1334.822,1197.575 1327.397,1207.445 1318.385 C 1230.233 1297.578,1236.539 1296.931,1235.578 1315.500 M729.821 1320.887 C 734.564 1330.027,735.161 1334.650,733.067 1346.022 L 730.500 1359.957 705.760 1336.676 C 692.153 1323.872,681.838 1312.072,682.837 1310.454 C 683.842 1308.828,693.450 1307.999,704.332 1308.601 C 723.623 1309.667,724.123 1309.908,729.821 1320.887 M830.956 1346.250 C 830.980 1346.663,828.300 1347.000,825.000 1347.000 C 819.623 1347.000,819.017 1345.054,819.161 1328.250 L 819.323 1309.500 825.117 1327.500 C 828.304 1337.400,830.932 1345.838,830.956 1346.250 M896.079 1325.193 C 895.318 1328.112,894.646 1326.450,894.585 1321.500 C 894.524 1316.550,895.146 1314.162,895.968 1316.193 C 896.790 1318.224,896.840 1322.274,896.079 1325.193 M880.712 1340.288 C 877.000 1344.000,875.555 1337.920,877.903 1328.465 L 880.378 1318.500 881.400 1328.538 C 881.963 1334.060,881.653 1339.347,880.712 1340.288 M976.307 1338.312 C 973.861 1342.269,966.696 1341.581,965.238 1337.250 C 964.544 1335.188,964.647 1330.918,965.466 1327.762 C 966.876 1322.328,967.246 1322.385,972.461 1328.825 C 975.490 1332.565,977.220 1336.834,976.307 1338.312 M810.000 1342.500 C 810.000 1346.625,808.837 1350.000,807.416 1350.000 C 805.995 1350.000,805.477 1346.625,806.266 1342.500 C 807.054 1338.375,808.217 1335.000,808.850 1335.000 C 809.482 1335.000,810.000 1338.375,810.000 1342.500 M880.500 1362.000 C 881.520 1363.650,880.924 1365.000,879.177 1365.000 C 877.430 1365.000,876.000 1363.650,876.000 1362.000 C 876.000 1360.350,876.595 1359.000,877.323 1359.000 C 878.051 1359.000,879.480 1360.350,880.500 1362.000 M985.500 1362.000 C 986.601 1363.782,983.090 1365.000,976.854 1365.000 C 971.079 1365.000,965.520 1363.650,964.500 1362.000 C 963.399 1360.218,966.910 1359.000,973.146 1359.000 C 978.921 1359.000,984.480 1360.350,985.500 1362.000 M1149.361 1385.985 C 1148.875 1395.051,1146.907 1403.488,1144.989 1404.735 C 1142.457 1406.379,1142.727 1407.789,1145.975 1409.875 C 1149.492 1412.135,1149.668 1413.532,1146.796 1416.404 C 1143.985 1419.215,1143.958 1421.039,1146.680 1424.319 C 1149.463 1427.673,1149.155 1429.175,1145.236 1431.368 C 1141.057 1433.706,1140.467 1438.012,1141.573 1458.078 L 1142.891 1482.000 1124.046 1482.000 C 1113.388 1482.000,1103.636 1480.436,1101.600 1478.400 C 1099.432 1476.232,1098.008 1465.791,1098.019 1452.150 C 1098.037 1430.289,1098.342 1429.327,1106.762 1424.537 C 1115.905 1419.336,1123.032 1410.009,1126.335 1398.922 C 1127.818 1393.944,1125.589 1389.348,1117.171 1380.031 L 1106.047 1367.718 1128.146 1368.609 L 1150.245 1369.500 1149.361 1385.985 M988.500 1374.000 C 993.528 1376.161,992.921 1376.612,984.750 1376.789 C 979.388 1376.905,975.000 1375.650,975.000 1374.000 C 975.000 1370.438,980.212 1370.438,988.500 1374.000 M1163.079 1382.193 C 1162.318 1385.112,1161.646 1383.450,1161.585 1378.500 C 1161.524 1373.550,1162.146 1371.162,1162.968 1373.193 C 1163.790 1375.224,1163.840 1379.274,1163.079 1382.193 M810.000 1387.677 C 810.000 1395.999,806.480 1397.103,801.000 1390.500 C 798.034 1386.926,798.028 1385.081,800.973 1381.533 C 805.834 1375.676,810.000 1378.511,810.000 1387.677 M1051.572 1383.226 C 1054.208 1391.532,1052.190 1392.958,1041.215 1390.547 C 1031.238 1388.356,1030.014 1386.186,1035.600 1380.600 C 1041.196 1375.004,1049.390 1376.352,1051.572 1383.226 M820.813 1388.188 C 817.763 1391.237,815.247 1386.646,817.749 1382.597 C 819.639 1379.539,820.346 1379.537,821.362 1382.585 C 822.057 1384.670,821.809 1387.191,820.813 1388.188 M837.000 1386.000 C 837.000 1387.650,834.895 1389.000,832.323 1389.000 C 829.751 1389.000,828.480 1387.650,829.500 1386.000 C 830.520 1384.350,832.624 1383.000,834.177 1383.000 C 835.730 1383.000,837.000 1384.350,837.000 1386.000 M999.336 1396.782 C 1003.784 1408.123,1002.362 1416.000,995.868 1416.000 C 992.496 1416.000,990.124 1414.313,990.598 1412.250 C 991.072 1410.188,990.118 1408.074,988.480 1407.553 C 985.764 1406.690,978.361 1395.590,978.106 1392.000 C 978.047 1391.175,982.296 1390.627,987.546 1390.782 C 993.980 1390.972,997.825 1392.929,999.336 1396.782 M1162.987 1398.750 C 1162.155 1400.813,1161.474 1399.125,1161.474 1395.000 C 1161.474 1390.875,1162.155 1389.188,1162.987 1391.250 C 1163.819 1393.313,1163.819 1396.688,1162.987 1398.750 M847.547 1404.215 C 848.660 1409.283,849.096 1413.904,848.515 1414.485 C 847.934 1415.066,842.752 1414.578,836.998 1413.401 C 824.348 1410.814,821.283 1402.283,831.527 1398.176 C 842.941 1393.600,845.421 1394.535,847.547 1404.215 M1052.844 1404.106 C 1055.890 1405.717,1053.419 1407.532,1044.575 1410.182 C 1030.391 1414.432,1027.567 1413.241,1030.430 1404.220 C 1032.015 1399.227,1034.007 1398.368,1040.454 1399.899 C 1044.879 1400.950,1050.455 1402.843,1052.844 1404.106 M1107.000 1406.823 C 1107.000 1410.363,1101.149 1414.149,1099.000 1412.000 C 1096.851 1409.851,1100.637 1404.000,1104.177 1404.000 C 1105.730 1404.000,1107.000 1405.270,1107.000 1406.823 M897.000 1413.000 C 897.000 1416.300,895.650 1419.000,894.000 1419.000 C 892.350 1419.000,891.000 1416.300,891.000 1413.000 C 891.000 1409.700,892.350 1407.000,894.000 1407.000 C 895.650 1407.000,897.000 1409.700,897.000 1413.000 M1059.000 1423.500 C 1059.000 1426.500,1056.000 1428.000,1050.000 1428.000 C 1045.050 1428.000,1041.000 1426.744,1041.000 1425.209 C 1041.000 1422.808,1043.891 1421.743,1056.750 1419.409 C 1057.988 1419.184,1059.000 1421.025,1059.000 1423.500 M839.750 1426.922 C 840.438 1427.515,836.725 1428.000,831.500 1428.000 C 826.275 1428.000,822.000 1426.624,822.000 1424.943 C 822.000 1422.252,836.167 1423.832,839.750 1426.922 M1023.807 1432.968 C 1021.776 1433.790,1017.726 1433.840,1014.807 1433.079 C 1011.888 1432.318,1013.550 1431.646,1018.500 1431.585 C 1023.450 1431.524,1025.838 1432.146,1023.807 1432.968 M850.500 1447.317 C 853.800 1447.990,861.740 1448.644,868.145 1448.770 L 879.790 1449.000 878.272 1460.317 C 877.437 1466.542,873.752 1478.614,870.082 1487.144 C 864.708 1499.636,861.676 1503.034,854.491 1504.612 C 849.585 1505.689,845.112 1506.105,844.550 1505.535 C 843.989 1504.966,836.812 1490.494,828.601 1473.376 L 813.672 1442.253 829.086 1444.173 C 837.564 1445.229,847.200 1446.643,850.500 1447.317 M1050.000 1444.649 C 1050.000 1445.556,1047.940 1450.281,1045.423 1455.149 C 1042.271 1461.244,1038.590 1464.000,1033.600 1464.000 C 1029.615 1464.000,1025.630 1465.171,1024.746 1466.602 C 1023.861 1468.033,1017.369 1469.972,1010.319 1470.911 C 1003.268 1471.849,994.800 1473.185,991.500 1473.878 C 988.200 1474.572,987.188 1474.559,989.250 1473.849 C 991.313 1473.140,993.000 1471.165,993.000 1469.459 C 993.000 1467.754,990.975 1467.178,988.500 1468.179 C 986.025 1469.181,982.152 1470.751,979.894 1471.670 C 977.530 1472.631,975.130 1471.041,974.235 1467.920 C 973.380 1464.939,971.759 1460.270,970.633 1457.546 C 968.846 1453.222,972.222 1452.318,997.122 1450.452 C 1012.817 1449.275,1030.123 1447.255,1035.579 1445.963 C 1048.808 1442.831,1050.000 1442.722,1050.000 1444.649 M1227.000 1445.477 C 1227.000 1446.839,1230.375 1451.125,1234.500 1455.000 C 1243.359 1463.323,1244.752 1457.752,1236.000 1449.000 C 1229.545 1442.545,1227.000 1441.549,1227.000 1445.477 M909.000 1470.000 C 909.000 1483.712,907.965 1488.000,904.656 1488.000 C 901.338 1488.000,900.333 1483.751,900.399 1470.000 C 900.464 1456.496,901.549 1452.000,904.743 1452.000 C 907.946 1452.000,909.000 1456.456,909.000 1470.000 M816.406 1494.239 L 830.375 1525.500 815.292 1527.782 C 803.346 1529.590,799.511 1529.114,796.854 1525.496 C 792.171 1519.117,794.083 1460.194,798.921 1461.807 C 800.855 1462.452,808.723 1477.046,816.406 1494.239 M893.122 1476.715 C 892.404 1480.447,891.790 1478.100,891.757 1471.500 C 891.723 1464.900,892.310 1461.847,893.061 1464.715 C 893.812 1467.583,893.839 1472.983,893.122 1476.715 M1074.000 1468.500 C 1074.000 1472.625,1072.975 1476.000,1071.722 1476.000 C 1070.469 1476.000,1067.691 1478.806,1065.549 1482.235 C 1062.404 1487.271,1062.386 1489.350,1065.454 1493.047 C 1069.257 1497.629,1074.282 1530.094,1071.158 1529.894 C 1067.400 1529.653,1054.737 1521.176,1057.500 1520.751 C 1059.150 1520.498,1056.461 1519.426,1051.525 1518.370 L 1042.550 1516.450 1049.275 1509.725 C 1053.151 1505.849,1054.411 1502.958,1052.250 1502.900 C 1050.188 1502.845,1051.480 1500.313,1055.122 1497.273 C 1058.765 1494.232,1060.932 1490.932,1059.939 1489.939 C 1057.471 1487.471,1067.815 1461.000,1071.248 1461.000 C 1072.762 1461.000,1074.000 1464.375,1074.000 1468.500 M1033.678 1475.439 C 1029.660 1488.099,1017.879 1497.000,1005.143 1497.000 C 993.684 1497.000,981.000 1489.373,981.000 1482.481 C 981.000 1481.096,990.788 1478.285,1002.750 1476.235 C 1014.713 1474.185,1026.525 1471.426,1029.000 1470.105 C 1034.863 1466.976,1035.965 1468.233,1033.678 1475.439 M1152.771 1494.540 C 1155.047 1495.985,1152.769 1496.926,1146.927 1496.954 C 1141.662 1496.979,1136.546 1498.307,1135.559 1499.904 C 1133.386 1503.420,1113.000 1503.068,1113.000 1499.514 C 1113.000 1498.131,1110.975 1497.000,1108.500 1497.000 C 1106.025 1497.000,1104.000 1495.590,1104.000 1493.867 C 1104.000 1490.230,1146.917 1490.822,1152.771 1494.540 M900.240 1507.876 C 895.700 1513.648,894.000 1514.473,894.000 1510.905 C 894.000 1508.207,895.350 1506.000,897.000 1506.000 C 898.650 1506.000,900.000 1504.692,900.000 1503.094 C 900.000 1501.496,897.638 1500.914,894.750 1501.801 C 891.863 1502.689,892.875 1501.393,897.000 1498.923 C 906.620 1493.161,908.257 1497.684,900.240 1507.876 M1109.470 1509.345 C 1112.236 1509.535,1117.009 1509.426,1120.075 1509.102 C 1129.001 1508.159,1140.521 1511.937,1139.358 1515.426 C 1137.996 1519.513,1116.964 1526.896,1106.516 1526.955 C 1098.984 1526.997,1098.580 1526.278,1099.379 1514.250 C 1100.386 1499.080,1101.224 1496.694,1103.068 1503.750 C 1103.823 1506.638,1106.703 1509.155,1109.470 1509.345 M1151.188 1501.813 C 1150.191 1502.809,1147.603 1502.916,1145.438 1502.049 C 1143.044 1501.092,1143.755 1500.381,1147.250 1500.237 C 1150.413 1500.107,1152.184 1500.816,1151.188 1501.813 M879.000 1513.500 C 879.000 1522.178,877.903 1524.000,872.679 1524.000 C 867.836 1524.000,866.863 1522.773,868.519 1518.750 C 869.708 1515.863,871.360 1511.138,872.190 1508.250 C 874.779 1499.245,879.000 1502.499,879.000 1513.500 M1007.750 1507.873 C 1008.438 1508.493,1008.202 1509.798,1007.226 1510.774 C 1004.641 1513.359,993.000 1509.122,993.000 1505.596 C 993.000 1502.961,1004.226 1504.694,1007.750 1507.873 M1059.000 1504.179 C 1059.000 1504.828,1061.025 1506.135,1063.500 1507.085 C 1065.975 1508.035,1068.000 1507.504,1068.000 1505.906 C 1068.000 1504.308,1065.975 1503.000,1063.500 1503.000 C 1061.025 1503.000,1059.000 1503.531,1059.000 1504.179 M975.367 1517.404 C 977.435 1522.994,976.754 1524.000,970.905 1524.000 C 964.596 1524.000,963.145 1519.918,965.750 1509.500 C 966.554 1506.284,973.306 1511.834,975.367 1517.404 M1062.000 1517.823 C 1062.000 1519.376,1063.350 1521.480,1065.000 1522.500 C 1066.650 1523.520,1068.000 1522.249,1068.000 1519.677 C 1068.000 1517.105,1066.650 1515.000,1065.000 1515.000 C 1063.350 1515.000,1062.000 1516.270,1062.000 1517.823 M1136.616 1533.301 C 1130.537 1537.152,1128.000 1536.569,1128.000 1531.323 C 1128.000 1528.751,1129.257 1527.423,1130.793 1528.372 C 1132.329 1529.321,1134.601 1528.455,1135.842 1526.447 C 1137.577 1523.639,1138.403 1523.708,1139.415 1526.745 C 1140.139 1528.917,1138.879 1531.867,1136.616 1533.301 M1059.000 1530.042 C 1062.166 1532.117,1060.387 1532.420,1053.000 1531.065 C 1040.062 1528.691,1037.621 1526.985,1047.250 1527.046 C 1051.238 1527.071,1056.525 1528.419,1059.000 1530.042 M984.000 1533.057 C 984.000 1534.872,980.648 1535.310,975.750 1534.135 C 963.972 1531.310,963.576 1530.000,974.500 1530.000 C 979.725 1530.000,984.000 1531.376,984.000 1533.057 M1120.390 1531.873 C 1128.319 1534.915,1116.116 1541.764,1106.157 1539.860 C 1095.634 1537.848,1095.684 1533.749,1106.250 1532.149 C 1110.788 1531.461,1114.727 1530.697,1115.005 1530.449 C 1115.282 1530.202,1117.706 1530.843,1120.390 1531.873 M835.500 1540.377 C 835.500 1545.128,832.209 1546.913,818.324 1549.695 C 802.811 1552.803,800.658 1552.595,796.092 1547.549 C 793.312 1544.477,791.860 1541.140,792.866 1540.134 C 796.084 1536.916,814.157 1533.460,825.000 1533.988 C 833.253 1534.390,835.500 1535.758,835.500 1540.377 M873.750 1534.987 C 871.688 1535.819,868.313 1535.819,866.250 1534.987 C 864.188 1534.155,865.875 1533.474,870.000 1533.474 C 874.125 1533.474,875.813 1534.155,873.750 1534.987 M1070.473 1540.682 C 1073.582 1541.700,1073.384 1543.044,1069.565 1546.864 C 1065.952 1550.476,1061.178 1551.350,1051.194 1550.224 C 1035.423 1548.447,1033.043 1546.842,1038.119 1541.408 C 1041.566 1537.718,1060.149 1537.300,1070.473 1540.682 M768.000 1558.594 C 768.000 1569.277,766.664 1575.584,764.250 1576.299 C 762.188 1576.910,752.063 1579.334,741.750 1581.687 L 723.000 1585.964 723.000 1568.598 L 723.000 1551.231 734.250 1548.343 C 769.029 1539.415,768.000 1539.103,768.000 1558.594 M1111.846 1547.296 C 1115.374 1549.620,1115.543 1578.957,1112.035 1580.250 C 1110.916 1580.663,1107.300 1581.000,1104.000 1581.000 C 1098.667 1581.000,1098.000 1579.000,1098.000 1563.000 C 1098.000 1547.840,1098.828 1545.007,1103.250 1545.046 C 1106.138 1545.071,1110.005 1546.084,1111.846 1547.296 M870.750 1549.987 C 868.688 1550.819,865.313 1550.819,863.250 1549.987 C 861.188 1549.155,862.875 1548.474,867.000 1548.474 C 871.125 1548.474,872.813 1549.155,870.750 1549.987 M984.000 1557.177 C 984.000 1562.224,982.871 1565.657,981.492 1564.804 C 980.113 1563.952,979.325 1560.159,979.742 1556.377 C 980.671 1547.950,980.654 1548.000,982.500 1548.000 C 983.325 1548.000,984.000 1552.130,984.000 1557.177 M892.987 1560.750 C 892.155 1562.813,891.474 1561.125,891.474 1557.000 C 891.474 1552.875,892.155 1551.188,892.987 1553.250 C 893.819 1555.313,893.819 1558.688,892.987 1560.750 M998.905 1563.750 C 998.957 1564.988,996.975 1566.000,994.500 1566.000 C 991.615 1566.000,990.000 1563.103,990.000 1557.927 C 990.000 1550.184,990.180 1550.092,994.405 1555.677 C 996.827 1558.879,998.852 1562.513,998.905 1563.750 M717.000 1570.594 C 717.000 1583.770,715.918 1587.528,711.750 1588.838 C 708.863 1589.746,698.132 1593.876,687.904 1598.016 C 677.676 1602.157,667.889 1604.667,666.154 1603.595 C 664.419 1602.523,663.000 1596.417,663.000 1590.027 C 663.000 1576.720,671.135 1569.180,695.503 1559.901 C 716.728 1551.819,717.000 1551.954,717.000 1570.594 M837.000 1561.883 C 837.000 1569.449,836.498 1569.687,824.536 1567.774 C 805.334 1564.703,804.255 1562.120,820.562 1558.254 C 828.778 1556.306,835.838 1554.552,836.250 1554.356 C 836.663 1554.160,837.000 1557.548,837.000 1561.883 M1050.750 1559.959 C 1060.969 1560.039,1055.823 1565.261,1043.599 1567.216 C 1029.467 1569.476,1028.084 1568.877,1030.843 1561.688 C 1032.194 1558.167,1034.850 1557.059,1039.164 1558.217 C 1042.649 1559.153,1047.863 1559.937,1050.750 1559.959 M1161.000 1578.040 C 1161.000 1593.961,1160.491 1595.305,1155.000 1593.869 C 1148.830 1592.256,1146.893 1585.656,1151.714 1582.676 C 1153.207 1581.754,1153.701 1575.572,1152.811 1568.939 C 1151.431 1558.649,1151.913 1557.155,1156.097 1558.760 C 1159.854 1560.202,1161.000 1564.707,1161.000 1578.040 M1134.000 1564.394 C 1134.000 1569.285,1123.861 1575.861,1120.894 1572.894 C 1119.853 1571.853,1119.000 1568.525,1119.000 1565.500 C 1119.000 1561.633,1121.227 1560.000,1126.500 1560.000 C 1131.087 1560.000,1134.000 1561.707,1134.000 1564.394 M1181.867 1570.431 C 1189.505 1574.381,1190.549 1576.692,1191.468 1591.688 C 1192.036 1600.942,1192.093 1608.917,1191.596 1609.410 C 1191.099 1609.903,1185.362 1607.732,1178.846 1604.584 C 1167.190 1598.952,1167.000 1598.597,1167.000 1582.430 C 1167.000 1564.704,1168.480 1563.509,1181.867 1570.431 M984.000 1575.000 C 984.000 1576.650,983.405 1578.000,982.677 1578.000 C 981.949 1578.000,980.520 1576.650,979.500 1575.000 C 978.480 1573.350,979.076 1572.000,980.823 1572.000 C 982.570 1572.000,984.000 1573.350,984.000 1575.000 M837.000 1596.165 C 837.000 1609.663,836.574 1610.382,827.810 1611.668 C 819.648 1612.866,817.970 1611.743,812.810 1601.628 C 807.146 1590.525,805.405 1580.595,808.568 1577.432 C 809.431 1576.569,816.181 1577.247,823.568 1578.937 L 837.000 1582.011 837.000 1596.165 M1058.051 1582.607 C 1059.988 1588.503,1041.406 1614.000,1035.172 1614.000 C 1028.251 1614.000,1022.892 1605.646,1024.456 1597.294 C 1025.053 1594.107,1025.644 1590.008,1025.770 1588.184 C 1026.268 1580.996,1055.843 1575.886,1058.051 1582.607 M1133.252 1582.824 C 1137.684 1587.255,1137.625 1587.560,1132.536 1586.574 C 1129.490 1585.983,1126.435 1583.813,1125.749 1581.750 C 1124.022 1576.564,1127.488 1577.059,1133.252 1582.824 M766.862 1601.115 C 765.593 1619.539,764.003 1621.211,745.012 1624.092 C 738.144 1625.134,730.382 1626.809,727.762 1627.814 C 723.719 1629.366,723.000 1626.750,723.000 1610.487 L 723.000 1591.332 743.250 1586.734 C 754.388 1584.206,764.516 1582.638,765.758 1583.250 C 767.000 1583.863,767.497 1591.902,766.862 1601.115 M864.262 1588.890 C 881.121 1591.586,878.627 1602.000,861.122 1602.000 C 858.159 1602.000,854.054 1604.025,852.000 1606.500 C 845.602 1614.209,843.000 1611.514,843.000 1597.179 C 843.000 1585.788,843.837 1583.679,847.762 1585.186 C 850.382 1586.191,857.807 1587.858,864.262 1588.890 M1203.000 1596.000 C 1203.000 1600.755,1201.650 1605.480,1200.000 1606.500 C 1198.186 1607.621,1197.000 1603.472,1197.000 1596.000 C 1197.000 1588.528,1198.186 1584.379,1200.000 1585.500 C 1201.650 1586.520,1203.000 1591.245,1203.000 1596.000 M1114.521 1607.250 C 1114.817 1626.307,1113.442 1628.284,1102.745 1624.179 C 1099.153 1622.800,1098.000 1618.015,1098.000 1604.480 C 1098.000 1586.814,1098.097 1586.613,1106.115 1587.551 C 1113.932 1588.465,1114.241 1589.189,1114.521 1607.250 M1017.000 1600.500 C 1017.000 1610.944,1016.929 1611.000,1003.500 1611.000 C 990.586 1611.000,990.000 1610.620,990.000 1602.250 C 990.000 1592.569,992.847 1590.587,1007.250 1590.237 C 1016.438 1590.014,1017.000 1590.605,1017.000 1600.500 M1130.400 1593.600 C 1135.480 1598.680,1134.868 1608.069,1129.035 1614.514 C 1126.064 1617.796,1125.462 1620.000,1127.535 1620.000 C 1129.441 1620.000,1131.000 1618.425,1131.000 1616.500 C 1131.000 1614.575,1131.914 1613.914,1133.032 1615.032 C 1134.149 1616.149,1132.124 1619.802,1128.532 1623.149 C 1122.498 1628.770,1121.978 1628.825,1121.707 1623.867 C 1121.546 1620.915,1120.993 1612.088,1120.478 1604.250 C 1119.519 1589.667,1122.870 1586.070,1130.400 1593.600 M717.000 1612.367 L 717.000 1628.734 705.750 1624.707 C 686.545 1617.832,677.806 1613.083,678.811 1610.068 C 679.953 1606.641,704.201 1596.409,711.750 1596.168 C 716.129 1596.028,717.000 1598.716,717.000 1612.367 M984.000 1603.821 C 984.000 1609.720,982.834 1611.194,979.255 1609.821 C 976.645 1608.819,973.270 1608.000,971.755 1608.000 C 967.618 1608.000,968.440 1599.726,972.750 1597.987 C 980.906 1594.696,984.000 1596.300,984.000 1603.821 M909.000 1603.500 C 909.000 1605.975,907.650 1608.000,906.000 1608.000 C 904.350 1608.000,903.000 1605.975,903.000 1603.500 C 903.000 1601.025,904.350 1599.000,906.000 1599.000 C 907.650 1599.000,909.000 1601.025,909.000 1603.500 M1160.393 1619.280 C 1161.122 1634.561,1160.433 1638.000,1156.643 1638.000 C 1154.089 1638.000,1152.000 1636.650,1152.000 1635.000 C 1152.000 1633.350,1153.350 1632.000,1155.000 1632.000 C 1156.650 1632.000,1158.000 1629.975,1158.000 1627.500 C 1158.000 1625.025,1155.975 1623.000,1153.500 1623.000 C 1150.236 1623.000,1149.000 1619.642,1149.000 1610.780 C 1149.000 1600.761,1149.946 1598.740,1154.250 1599.560 C 1158.461 1600.362,1159.677 1604.263,1160.393 1619.280 M900.000 1605.000 C 900.000 1606.650,898.570 1608.000,896.823 1608.000 C 895.076 1608.000,894.480 1606.650,895.500 1605.000 C 896.520 1603.350,897.949 1602.000,898.677 1602.000 C 899.405 1602.000,900.000 1603.350,900.000 1605.000 M874.500 1608.000 C 873.480 1609.650,869.688 1610.979,866.073 1610.954 C 860.729 1610.917,860.342 1610.364,864.000 1608.000 C 869.910 1604.180,876.861 1604.180,874.500 1608.000 M1191.000 1635.122 L 1191.000 1653.122 1179.000 1647.000 C 1167.014 1640.885,1167.000 1640.858,1167.000 1622.878 L 1167.000 1604.878 1179.000 1611.000 C 1190.986 1617.115,1191.000 1617.142,1191.000 1635.122 M670.505 1646.495 C 667.235 1649.765,663.093 1639.774,663.046 1628.500 C 662.973 1610.991,670.325 1612.147,671.418 1629.816 C 671.923 1637.982,671.512 1645.488,670.505 1646.495 M876.000 1617.045 C 876.000 1618.515,874.377 1623.494,872.393 1628.109 C 870.408 1632.724,868.718 1636.728,868.636 1637.006 C 868.555 1637.285,864.778 1638.443,860.244 1639.581 C 852.271 1641.582,852.000 1641.252,852.000 1629.534 C 852.000 1619.267,853.030 1617.264,858.750 1616.411 C 872.728 1614.327,876.000 1614.447,876.000 1617.045 M904.678 1617.288 C 905.796 1619.096,904.525 1622.761,901.855 1625.431 C 897.382 1629.904,897.000 1629.646,897.000 1622.143 C 897.000 1613.858,900.996 1611.331,904.678 1617.288 M979.255 1615.821 C 982.417 1617.035,983.958 1621.287,983.874 1628.571 L 983.749 1639.500 978.000 1629.000 C 969.874 1614.157,970.052 1612.290,979.255 1615.821 M837.000 1629.000 C 837.000 1643.323,835.651 1643.895,829.577 1632.149 C 823.489 1620.375,823.806 1617.000,831.000 1617.000 C 836.000 1617.000,837.000 1619.000,837.000 1629.000 M845.117 1635.750 C 844.402 1639.463,843.817 1636.425,843.817 1629.000 C 843.817 1621.575,844.402 1618.538,845.117 1622.250 C 845.832 1625.963,845.832 1632.038,845.117 1635.750 M1015.188 1626.750 C 1014.884 1632.113,1014.493 1637.513,1014.318 1638.750 C 1014.143 1639.988,1008.600 1641.000,1002.000 1641.000 L 990.000 1641.000 990.000 1629.000 L 990.000 1617.000 1002.870 1617.000 C 1015.503 1617.000,1015.730 1617.179,1015.188 1626.750 M693.410 1626.209 C 706.989 1633.136,706.735 1634.424,690.694 1640.011 C 675.654 1645.249,676.191 1645.575,677.486 1632.000 C 678.115 1625.400,679.217 1620.000,679.935 1620.000 C 680.652 1620.000,686.716 1622.794,693.410 1626.209 M808.174 1632.061 C 810.828 1638.694,813.000 1644.493,813.000 1644.948 C 813.000 1645.402,808.275 1646.092,802.500 1646.481 C 792.154 1647.178,792.000 1647.015,792.000 1635.344 C 792.000 1624.877,794.352 1621.107,801.424 1620.237 C 802.483 1620.107,805.520 1625.427,808.174 1632.061 M1034.954 1622.250 C 1034.929 1623.488,1033.599 1626.525,1032.000 1629.000 C 1029.648 1632.639,1029.083 1632.208,1029.046 1626.750 C 1029.021 1623.038,1030.350 1620.000,1032.000 1620.000 C 1033.650 1620.000,1034.979 1621.013,1034.954 1622.250 M1069.464 1629.750 C 1068.397 1633.463,1066.865 1638.863,1066.060 1641.750 C 1065.255 1644.638,1061.874 1647.000,1058.548 1647.000 C 1055.222 1647.000,1053.038 1645.988,1053.695 1644.750 C 1054.353 1643.513,1056.622 1638.113,1058.739 1632.750 C 1063.192 1621.468,1072.601 1618.836,1069.464 1629.750 M765.000 1633.557 C 765.000 1641.599,764.956 1641.602,741.000 1634.941 C 734.263 1633.068,734.873 1632.540,747.000 1629.749 C 754.425 1628.041,761.513 1626.498,762.750 1626.321 C 763.988 1626.145,765.000 1629.401,765.000 1633.557 M1110.972 1631.578 C 1117.461 1634.135,1118.044 1637.858,1112.506 1641.369 C 1104.459 1646.469,1098.000 1644.302,1098.000 1636.500 C 1098.000 1628.884,1101.126 1627.698,1110.972 1631.578 M753.000 1648.934 C 753.000 1653.856,750.832 1654.922,735.750 1657.418 L 723.000 1659.527 723.000 1647.772 L 723.000 1636.017 738.000 1640.620 C 746.250 1643.152,753.000 1646.893,753.000 1648.934 M904.500 1638.000 C 903.480 1639.650,901.376 1641.000,899.823 1641.000 C 898.270 1641.000,897.000 1639.650,897.000 1638.000 C 897.000 1636.350,899.105 1635.000,901.677 1635.000 C 904.249 1635.000,905.520 1636.350,904.500 1638.000 M717.000 1650.000 C 717.000 1656.600,715.650 1662.000,714.000 1662.000 C 712.350 1662.000,711.000 1656.600,711.000 1650.000 C 711.000 1643.400,712.350 1638.000,714.000 1638.000 C 715.650 1638.000,717.000 1643.400,717.000 1650.000 M705.000 1653.177 C 705.000 1663.498,700.375 1664.433,686.101 1657.000 L 676.500 1652.000 688.393 1646.720 C 702.488 1640.462,705.000 1641.439,705.000 1653.177 M765.000 1650.177 C 765.000 1651.730,763.650 1653.000,762.000 1653.000 C 760.350 1653.000,759.000 1650.895,759.000 1648.323 C 759.000 1645.751,760.350 1644.480,762.000 1645.500 C 763.650 1646.520,765.000 1648.624,765.000 1650.177 M1129.848 1648.325 C 1130.761 1650.703,1131.056 1654.821,1130.504 1657.475 C 1129.628 1661.687,1128.770 1661.764,1123.763 1658.084 C 1120.221 1655.482,1118.750 1651.979,1119.918 1648.934 C 1122.255 1642.845,1127.619 1642.516,1129.848 1648.325 M1172.001 1650.249 L 1186.500 1656.498 1176.000 1662.123 C 1162.518 1669.346,1147.591 1670.000,1150.179 1663.255 C 1151.181 1660.645,1152.000 1655.245,1152.000 1651.255 C 1152.000 1642.413,1153.630 1642.331,1172.001 1650.249 M1114.085 1651.500 C 1115.325 1654.733,1113.776 1656.000,1108.583 1656.000 C 1099.776 1656.000,1095.888 1650.986,1103.213 1649.075 C 1112.012 1646.780,1112.298 1646.844,1114.085 1651.500 M671.455 1667.791 C 671.545 1674.276,669.831 1681.065,667.647 1682.878 C 664.500 1685.490,663.382 1683.824,662.256 1674.837 C 660.921 1664.184,663.857 1656.000,669.014 1656.000 C 670.267 1656.000,671.366 1661.306,671.455 1667.791 M693.708 1668.072 C 692.494 1669.056,687.874 1671.399,683.441 1673.279 C 675.759 1676.537,675.428 1676.319,676.349 1668.598 C 676.881 1664.144,677.470 1660.280,677.658 1660.011 C 677.846 1659.741,682.031 1661.043,686.958 1662.902 C 691.885 1664.762,694.923 1667.089,693.708 1668.072 M820.500 1662.000 C 821.606 1663.789,817.972 1665.000,811.500 1665.000 C 805.028 1665.000,801.394 1663.789,802.500 1662.000 C 803.520 1660.350,807.570 1659.000,811.500 1659.000 C 815.430 1659.000,819.480 1660.350,820.500 1662.000 M1191.000 1673.751 L 1191.000 1685.502 1179.140 1679.005 L 1167.280 1672.509 1176.890 1667.380 C 1190.309 1660.218,1191.000 1660.530,1191.000 1673.751 M1057.500 1671.000 C 1049.127 1674.598,1040.276 1674.598,1042.500 1671.000 C 1043.520 1669.350,1048.662 1668.095,1053.927 1668.211 C 1061.996 1668.389,1062.558 1668.827,1057.500 1671.000 M821.625 1672.875 C 837.023 1675.955,832.743 1680.941,816.750 1678.556 C 798.335 1675.809,789.803 1671.218,802.875 1671.091 C 808.031 1671.041,816.469 1671.844,821.625 1672.875 M1125.995 1674.117 C 1127.923 1674.182,1124.908 1676.228,1119.296 1678.663 C 1113.684 1681.099,1108.429 1682.429,1107.619 1681.619 C 1104.784 1678.784,1114.001 1670.742,1118.226 1672.363 C 1120.572 1673.264,1124.068 1674.053,1125.995 1674.117 M978.000 1677.000 C 978.000 1678.650,976.570 1680.000,974.823 1680.000 C 973.076 1680.000,972.480 1678.650,973.500 1677.000 C 974.520 1675.350,975.949 1674.000,976.677 1674.000 C 977.405 1674.000,978.000 1675.350,978.000 1677.000 M741.643 1684.946 C 747.949 1689.316,752.475 1693.525,751.700 1694.300 C 750.925 1695.075,741.450 1693.952,730.645 1691.804 C 715.094 1688.713,711.000 1686.763,711.000 1682.450 C 711.000 1674.050,727.908 1675.427,741.643 1684.946 M1071.818 1685.194 C 1070.427 1688.821,1069.538 1689.114,1068.586 1686.259 C 1067.739 1683.716,1066.585 1683.435,1065.331 1685.465 C 1064.262 1687.194,1055.988 1689.540,1046.944 1690.677 C 1026.036 1693.307,1029.674 1688.187,1053.000 1682.153 C 1071.415 1677.390,1074.615 1677.907,1071.818 1685.194 M1206.000 1678.323 C 1206.000 1679.051,1204.650 1680.480,1203.000 1681.500 C 1201.350 1682.520,1200.000 1681.924,1200.000 1680.177 C 1200.000 1678.430,1201.350 1677.000,1203.000 1677.000 C 1204.650 1677.000,1206.000 1677.595,1206.000 1678.323 M703.500 1683.000 C 704.520 1684.650,703.170 1686.000,700.500 1686.000 C 697.830 1686.000,696.480 1684.650,697.500 1683.000 C 698.520 1681.350,699.870 1680.000,700.500 1680.000 C 701.130 1680.000,702.480 1681.350,703.500 1683.000 M1131.000 1685.635 C 1131.000 1689.151,1106.726 1695.187,1102.681 1692.677 C 1100.931 1691.592,1104.900 1689.074,1111.500 1687.083 C 1126.374 1682.594,1131.000 1682.251,1131.000 1685.635 M972.750 1693.987 C 970.688 1694.819,967.313 1694.819,965.250 1693.987 C 963.188 1693.155,964.875 1692.474,969.000 1692.474 C 973.125 1692.474,974.813 1693.155,972.750 1693.987 M1186.500 1698.000 C 1187.575 1699.740,1184.656 1701.000,1179.552 1701.000 C 1174.711 1701.000,1166.194 1701.854,1160.625 1702.897 C 1153.612 1704.210,1151.422 1703.827,1153.500 1701.651 C 1158.881 1696.014,1183.584 1693.281,1186.500 1698.000 M990.000 1701.000 C 990.000 1702.650,983.588 1703.808,975.750 1703.574 L 961.500 1703.149 973.500 1701.000 C 980.100 1699.818,986.513 1698.660,987.750 1698.426 C 988.988 1698.192,990.000 1699.350,990.000 1701.000 M995.215 1712.093 C 996.057 1714.655,993.109 1715.189,984.948 1713.953 C 968.019 1711.388,964.775 1706.428,980.767 1707.561 C 988.064 1708.077,994.565 1710.117,995.215 1712.093 M1041.000 1710.000 C 1035.130 1713.793,1029.000 1713.793,1029.000 1710.000 C 1029.000 1708.350,1032.713 1707.021,1037.250 1707.046 C 1043.679 1707.082,1044.507 1707.734,1041.000 1710.000 M738.652 1713.705 C 733.589 1716.144,730.892 1716.092,728.302 1713.502 C 725.633 1710.833,727.261 1710.048,735.150 1710.203 C 744.870 1710.394,745.083 1710.607,738.652 1713.705 M1157.188 1711.813 C 1156.191 1712.809,1153.603 1712.916,1151.438 1712.049 C 1149.044 1711.092,1149.755 1710.381,1153.250 1710.237 C 1156.413 1710.107,1158.184 1710.816,1157.188 1711.813 M1186.041 1712.602 C 1191.014 1714.559,1191.101 1715.181,1186.895 1718.673 C 1183.620 1721.390,1178.333 1721.888,1169.354 1720.326 L 1156.500 1718.090 1165.500 1714.180 C 1175.722 1709.740,1178.269 1709.544,1186.041 1712.602 M716.765 1715.792 C 724.427 1720.641,697.022 1726.151,686.637 1721.850 C 681.887 1719.882,678.000 1717.086,678.000 1715.636 C 678.000 1712.173,711.259 1712.306,716.765 1715.792 M822.000 1728.340 C 822.000 1731.443,819.974 1731.581,810.750 1729.109 C 800.816 1726.447,802.532 1722.824,813.000 1724.360 C 817.950 1725.087,822.000 1726.878,822.000 1728.340 M747.114 1733.788 C 745.517 1736.771,745.064 1740.064,746.106 1741.106 C 748.993 1743.993,743.864 1743.318,729.000 1738.857 L 715.500 1734.805 730.500 1730.393 C 747.625 1725.356,751.232 1726.093,747.114 1733.788 M1056.750 1726.987 C 1054.688 1727.819,1051.313 1727.819,1049.250 1726.987 C 1047.188 1726.155,1048.875 1725.474,1053.000 1725.474 C 1057.125 1725.474,1058.813 1726.155,1056.750 1726.987 M852.000 1740.153 C 844.575 1741.474,832.425 1742.496,825.000 1742.423 C 812.821 1742.303,812.381 1742.066,820.500 1740.000 C 825.450 1738.740,837.600 1737.719,847.500 1737.730 L 865.500 1737.751 852.000 1740.153 M854.250 1752.750 C 852.966 1756.602,850.250 1756.820,825.750 1755.031 L 811.500 1753.991 829.500 1752.000 C 839.400 1750.905,849.300 1749.782,851.500 1749.504 C 853.700 1749.227,854.938 1750.688,854.250 1752.750 M1057.169 1752.046 C 1062.356 1752.084,1062.687 1752.617,1059.000 1755.000 C 1052.609 1759.130,1040.982 1758.452,1030.500 1753.338 C 1021.531 1748.962,1021.551 1748.952,1036.169 1750.473 C 1044.237 1751.313,1053.687 1752.021,1057.169 1752.046 M1140.000 1764.000 C 1140.000 1765.650,1139.405 1767.000,1138.677 1767.000 C 1137.949 1767.000,1136.520 1765.650,1135.500 1764.000 C 1134.480 1762.350,1135.076 1761.000,1136.823 1761.000 C 1138.570 1761.000,1140.000 1762.350,1140.000 1764.000 M785.736 1784.282 C 789.550 1800.854,789.523 1804.193,785.514 1812.660 C 781.274 1821.613,778.823 1822.795,748.984 1830.281 C 724.467 1836.431,717.000 1837.377,717.000 1834.329 C 717.000 1832.143,718.445 1829.461,720.210 1828.370 C 721.976 1827.279,724.338 1824.162,725.460 1821.443 C 726.582 1818.724,735.510 1804.620,745.300 1790.101 C 761.787 1765.648,763.774 1763.768,772.256 1764.601 C 780.853 1765.445,781.678 1766.649,785.736 1784.282 M1121.668 1801.173 C 1133.401 1819.969,1143.000 1836.230,1143.000 1837.309 C 1143.000 1839.424,1126.102 1837.082,1111.500 1832.944 C 1106.550 1831.542,1094.915 1828.896,1085.644 1827.066 L 1068.788 1823.738 1072.882 1803.619 C 1079.924 1769.016,1079.207 1770.480,1089.760 1769.169 C 1095.117 1768.504,1099.688 1767.744,1099.918 1767.480 C 1100.148 1767.216,1109.935 1782.378,1121.668 1801.173 M830.519 1772.571 C 837.432 1774.514,837.348 1774.760,825.003 1788.784 C 818.109 1796.617,811.288 1802.296,809.845 1801.404 C 808.402 1800.513,805.969 1795.444,804.436 1790.142 C 802.904 1784.839,800.685 1778.138,799.504 1775.250 C 797.645 1770.702,799.106 1770.040,810.429 1770.299 C 817.618 1770.464,826.659 1771.486,830.519 1772.571 M1053.000 1774.398 C 1053.000 1779.413,1042.353 1796.585,1037.279 1799.754 C 1031.770 1803.194,1030.035 1802.275,1019.895 1790.538 L 1008.631 1777.500 1022.566 1775.721 C 1042.048 1773.234,1053.000 1772.758,1053.000 1774.398 M874.011 1784.250 C 873.822 1787.963,873.517 1793.468,873.333 1796.485 C 873.088 1800.526,868.992 1802.895,857.771 1805.485 C 833.621 1811.059,832.605 1810.132,846.585 1795.270 C 853.688 1787.718,859.975 1780.217,860.556 1778.601 C 861.137 1776.985,864.479 1776.076,867.984 1776.581 C 872.450 1777.225,874.252 1779.518,874.011 1784.250 M994.226 1792.848 C 1002.325 1801.759,1007.980 1810.020,1006.794 1811.206 C 1004.860 1813.140,972.000 1781.367,972.000 1777.564 C 972.000 1772.308,981.484 1778.830,994.226 1792.848 M964.500 1800.000 C 965.520 1801.650,965.004 1803.000,963.354 1803.000 C 961.704 1803.000,959.520 1801.650,958.500 1800.000 C 957.480 1798.350,957.996 1797.000,959.646 1797.000 C 961.296 1797.000,963.480 1798.350,964.500 1800.000 M870.000 1813.500 C 867.686 1816.288,861.556 1817.880,853.883 1817.685 L 841.500 1817.371 853.500 1813.416 C 870.525 1807.805,874.709 1807.826,870.000 1813.500 M975.000 1813.500 C 982.392 1817.726,982.316 1817.789,969.750 1817.894 C 960.369 1817.972,957.000 1816.811,957.000 1813.500 C 957.000 1807.875,965.160 1807.875,975.000 1813.500 M840.250 1827.000 C 856.450 1827.000,854.967 1831.105,837.115 1835.681 C 817.023 1840.830,810.091 1836.338,821.116 1825.313 C 824.426 1822.003,826.633 1821.398,827.366 1823.598 C 827.990 1825.469,833.788 1827.000,840.250 1827.000 M1021.248 1825.924 C 1022.828 1830.042,1022.389 1830.227,1018.569 1827.057 C 1013.363 1822.737,1012.821 1821.000,1016.679 1821.000 C 1018.153 1821.000,1020.208 1823.216,1021.248 1825.924 M1001.656 1840.150 C 1009.733 1848.380,1013.320 1854.066,1011.244 1855.349 C 1007.745 1857.512,977.812 1855.573,964.981 1852.353 C 958.833 1850.810,957.452 1848.680,957.606 1840.977 C 957.872 1827.647,958.656 1827.000,974.552 1827.000 C 987.361 1827.000,990.014 1828.287,1001.656 1840.150 M783.000 1833.911 C 783.000 1836.063,778.613 1842.032,773.250 1847.176 L 763.500 1856.528 739.682 1851.737 C 712.984 1846.366,713.429 1845.795,751.500 1836.595 C 781.779 1829.278,783.000 1829.174,783.000 1833.911 M1138.350 1844.984 C 1140.150 1844.994,1140.150 1845.951,1138.350 1847.581 C 1136.783 1849.000,1123.541 1852.473,1108.926 1855.299 L 1082.351 1860.436 1075.227 1853.744 C 1067.498 1846.483,1063.627 1837.648,1066.288 1833.343 C 1067.230 1831.819,1082.735 1833.769,1101.731 1837.801 C 1120.304 1841.743,1136.783 1844.976,1138.350 1844.984 M873.000 1856.806 L 873.000 1871.611 859.500 1871.171 C 852.075 1870.929,846.000 1869.561,846.000 1868.133 C 846.000 1865.985,869.825 1842.339,872.250 1842.080 C 872.663 1842.036,873.000 1848.663,873.000 1856.806 M800.313 1859.438 C 800.972 1861.416,798.763 1863.000,795.344 1863.000 C 791.030 1863.000,789.719 1861.616,790.964 1858.373 C 792.929 1853.253,798.461 1853.883,800.313 1859.438 M740.852 1860.249 C 749.184 1862.035,756.000 1864.220,756.000 1865.103 C 756.000 1866.928,751.963 1871.639,698.035 1932.744 C 676.559 1957.078,658.596 1976.596,658.118 1976.118 C 657.640 1975.640,663.206 1958.052,670.488 1937.035 C 680.805 1907.254,687.159 1894.206,699.276 1877.910 C 715.944 1855.496,716.865 1855.104,740.852 1860.249 M1157.605 1873.325 C 1164.384 1882.304,1171.941 1894.116,1174.398 1899.575 C 1181.948 1916.347,1212.162 2002.036,1211.306 2004.250 C 1210.863 2005.396,1189.575 1982.553,1164.000 1953.487 C 1138.425 1924.422,1110.877 1893.507,1102.783 1884.787 C 1094.689 1876.068,1088.614 1868.483,1089.283 1867.932 C 1091.229 1866.330,1131.865 1857.616,1138.890 1857.293 C 1143.295 1857.091,1149.107 1862.070,1157.605 1873.325 M969.000 1864.850 C 969.000 1865.482,966.300 1866.000,963.000 1866.000 C 959.700 1866.000,957.000 1864.776,957.000 1863.281 C 957.000 1861.785,959.700 1861.268,963.000 1862.131 C 966.300 1862.994,969.000 1864.217,969.000 1864.850 M1011.000 1869.000 C 1011.000 1870.650,1005.263 1871.840,998.250 1871.645 C 986.284 1871.312,986.054 1871.149,994.500 1869.000 C 1007.672 1865.648,1011.000 1865.648,1011.000 1869.000 M793.145 1878.750 C 791.406 1888.692,782.269 1898.318,694.444 1982.729 C 649.573 2025.855,634.643 2039.338,637.671 2034.000 C 639.075 2031.525,644.568 2024.775,649.879 2019.000 C 655.189 2013.225,662.420 2005.125,665.946 2001.000 C 734.022 1921.372,782.372 1869.198,788.175 1869.106 C 794.069 1869.012,794.650 1870.141,793.145 1878.750 M989.278 1879.722 C 985.966 1883.034,965.335 1886.557,960.386 1884.654 C 956.475 1883.151,956.899 1882.449,962.511 1881.138 C 973.185 1878.644,991.315 1877.685,989.278 1879.722 M861.750 1882.926 C 871.410 1884.522,873.000 1885.895,873.000 1892.635 C 873.000 1904.044,854.986 1956.345,851.746 1954.343 C 850.236 1953.410,849.000 1950.867,849.000 1948.692 C 849.000 1946.517,844.958 1931.606,840.017 1915.555 C 835.076 1899.504,831.781 1885.163,832.694 1883.686 C 834.620 1880.570,845.738 1880.279,861.750 1882.926 M1041.531 1882.531 C 1043.299 1884.299,1040.846 1897.559,1020.172 1998.000 C 1000.585 2093.158,1002.043 2087.351,999.092 2081.958 C 997.751 2079.506,991.603 2058.829,985.429 2036.009 L 974.204 1994.518 985.381 1968.509 C 1021.941 1883.437,1023.236 1881.000,1031.885 1881.000 C 1036.348 1881.000,1040.689 1881.689,1041.531 1882.531 M989.765 1921.865 C 981.259 1941.464,972.906 1960.150,971.202 1963.389 C 968.125 1969.241,968.092 1969.241,966.071 1963.389 C 964.953 1960.150,964.625 1943.189,965.343 1925.697 L 966.647 1893.894 985.074 1889.485 C 995.208 1887.060,1003.889 1885.336,1004.365 1885.653 C 1004.840 1885.970,998.270 1902.265,989.765 1921.865 M824.730 1947.000 C 830.102 1970.925,837.742 2002.650,841.709 2017.500 C 855.224 2068.088,858.000 2087.240,858.000 2129.875 C 858.000 2175.797,859.281 2173.091,835.884 2176.599 C 822.111 2178.665,822.000 2178.774,822.000 2190.341 C 822.000 2196.753,823.350 2202.000,825.000 2202.000 C 826.650 2202.000,828.000 2203.124,828.000 2204.498 C 828.000 2205.872,820.238 2208.406,810.750 2210.129 C 796.772 2212.668,787.571 2212.194,762.242 2207.631 C 722.844 2200.534,711.397 2200.581,668.894 2208.017 C 601.279 2219.847,600.697 2220.011,599.221 2227.732 C 598.018 2234.028,599.248 2234.970,610.975 2236.728 C 622.844 2238.508,632.486 2244.000,623.742 2244.000 C 621.755 2244.000,588.263 2249.519,549.315 2256.265 C 491.528 2266.273,476.805 2267.929,469.287 2265.265 C 464.220 2263.469,456.457 2262.000,452.037 2262.000 C 447.599 2262.000,444.007 2260.321,444.015 2258.250 C 444.038 2252.534,465.819 2225.017,473.255 2221.310 C 481.364 2217.267,505.666 2194.261,694.500 2011.872 C 807.261 1902.959,811.364 1899.142,813.232 1901.404 C 814.184 1902.557,819.358 1923.075,824.730 1947.000 M1187.268 2034.000 C 1211.152 2057.925,1236.964 2083.575,1244.627 2091.000 C 1289.988 2134.947,1318.203 2166.402,1314.383 2168.763 C 1308.552 2172.367,1304.737 2196.624,1308.137 2208.479 C 1309.712 2213.969,1311.000 2228.407,1311.000 2240.564 L 1311.000 2262.668 1321.500 2260.698 C 1329.820 2259.137,1332.000 2259.691,1332.000 2263.364 C 1332.000 2265.914,1329.443 2268.000,1326.318 2268.000 C 1318.075 2268.000,1231.391 2254.617,1064.346 2227.555 C 1028.512 2221.750,996.449 2217.000,993.096 2217.000 C 989.743 2217.000,987.000 2215.979,987.000 2214.730 C 987.000 2213.482,991.146 2192.894,996.213 2168.980 C 1001.280 2145.066,1011.326 2097.150,1018.536 2062.500 C 1033.866 1988.834,1049.493 1915.598,1052.105 1905.170 C 1053.794 1898.431,1057.562 1901.572,1098.892 1944.170 C 1123.615 1969.652,1163.384 2010.075,1187.268 2034.000 M1203.348 1928.250 C 1210.111 1939.378,1235.138 1978.487,1263.297 2021.932 C 1271.294 2034.269,1276.743 2045.457,1275.407 2046.793 C 1265.897 2056.303,1232.727 2020.145,1220.140 1986.549 C 1212.940 1967.331,1201.170 1936.715,1194.844 1920.750 C 1191.779 1913.015,1196.757 1917.405,1203.348 1928.250 M635.823 1971.198 C 620.666 2004.998,615.002 2014.283,600.719 2028.750 C 591.352 2038.238,581.846 2046.000,579.594 2046.000 C 577.342 2046.000,575.950 2044.971,576.500 2043.713 C 578.851 2038.338,652.301 1929.301,653.060 1930.060 C 653.520 1930.520,645.764 1949.032,635.823 1971.198 M872.734 1957.500 C 872.561 1978.988,871.531 1986.000,868.546 1986.000 C 866.369 1986.000,863.083 1981.685,861.245 1976.412 C 858.490 1968.509,859.008 1963.500,864.196 1947.912 C 867.657 1937.510,871.046 1929.000,871.726 1929.000 C 872.406 1929.000,872.860 1941.825,872.734 1957.500 M932.954 1967.250 C 932.906 1975.871,928.459 1985.459,925.761 1982.761 C 924.220 1981.220,930.059 1959.000,932.003 1959.000 C 932.552 1959.000,932.979 1962.713,932.954 1967.250 M932.188 1993.813 C 931.191 1994.809,928.603 1994.916,926.438 1994.049 C 924.044 1993.092,924.755 1992.381,928.250 1992.237 C 931.413 1992.107,933.184 1992.816,932.188 1993.813 M873.000 2014.854 C 873.000 2017.329,871.650 2018.520,870.000 2017.500 C 868.350 2016.480,867.000 2013.621,867.000 2011.146 C 867.000 2008.671,868.350 2007.480,870.000 2008.500 C 871.650 2009.520,873.000 2012.379,873.000 2014.854 M933.277 2011.500 C 933.255 2013.150,930.484 2014.931,927.119 2015.459 C 921.085 2016.404,919.002 2012.998,923.104 2008.896 C 926.021 2005.979,933.326 2007.849,933.277 2011.500 M982.608 2048.856 C 989.836 2076.262,990.283 2080.775,986.943 2092.703 C 983.360 2105.500,982.784 2106.000,971.610 2106.000 L 960.000 2106.000 960.000 2066.904 C 960.000 2037.777,961.220 2024.963,964.785 2016.654 C 970.543 2003.233,970.602 2003.339,982.608 2048.856 M931.393 2054.209 C 928.382 2063.067,925.047 2070.853,923.981 2071.512 C 922.915 2072.170,921.786 2062.730,921.471 2050.532 C 920.994 2032.081,921.789 2027.853,926.199 2025.364 C 935.298 2020.230,937.945 2034.932,931.393 2054.209 M588.750 2053.987 C 586.688 2054.819,583.313 2054.819,581.250 2053.987 C 579.188 2053.155,580.875 2052.474,585.000 2052.474 C 589.125 2052.474,590.813 2053.155,588.750 2053.987 M1272.000 2055.000 C 1275.507 2057.266,1274.679 2057.918,1268.250 2057.954 C 1263.713 2057.979,1260.000 2056.650,1260.000 2055.000 C 1260.000 2051.207,1266.130 2051.207,1272.000 2055.000 M581.606 2065.394 C 580.840 2066.160,573.527 2074.534,565.356 2084.002 C 538.314 2115.336,503.458 2154.000,502.251 2154.000 C 501.598 2154.000,513.239 2136.113,528.119 2114.250 C 545.795 2088.279,558.507 2072.680,564.790 2069.250 C 573.403 2064.548,585.145 2061.855,581.606 2065.394 M1290.828 2072.250 C 1300.137 2079.298,1342.628 2139.530,1357.900 2167.326 C 1362.552 2175.792,1346.700 2159.649,1318.302 2127.000 C 1311.844 2119.575,1297.437 2103.579,1286.286 2091.453 C 1275.136 2079.327,1266.765 2068.190,1267.684 2066.703 C 1270.749 2061.742,1279.821 2063.917,1290.828 2072.250 M1382.250 2077.891 C 1385.963 2078.886,1389.000 2081.567,1389.000 2083.850 C 1389.000 2086.132,1391.025 2088.000,1393.500 2088.000 C 1398.521 2088.000,1399.644 2095.630,1395.042 2098.474 C 1392.135 2100.271,1392.412 2106.109,1395.827 2115.000 C 1399.836 2125.440,1399.923 2139.000,1395.980 2139.000 C 1393.791 2139.000,1392.000 2140.350,1392.000 2142.000 C 1392.000 2147.346,1383.463 2145.175,1378.907 2138.671 C 1376.469 2135.190,1372.680 2132.958,1370.487 2133.710 C 1366.419 2135.107,1347.271 2109.140,1340.738 2093.367 C 1335.589 2080.937,1341.122 2075.990,1360.117 2076.041 C 1368.578 2076.063,1378.538 2076.896,1382.250 2077.891 M991.824 2122.263 C 994.465 2129.146,976.441 2214.055,972.360 2213.954 C 965.181 2213.777,963.516 2206.795,962.710 2173.500 C 961.850 2137.923,964.131 2126.351,973.199 2120.296 C 978.781 2116.569,990.098 2117.764,991.824 2122.263 M1401.000 2172.000 C 1401.000 2173.650,1400.405 2175.000,1399.677 2175.000 C 1398.949 2175.000,1397.520 2173.650,1396.500 2172.000 C 1395.480 2170.350,1396.076 2169.000,1397.823 2169.000 C 1399.570 2169.000,1401.000 2170.350,1401.000 2172.000 M1329.164 2199.000 C 1332.993 2213.850,1336.936 2226.000,1337.928 2226.000 C 1338.919 2226.000,1340.113 2236.264,1340.580 2248.810 C 1341.182 2264.968,1340.456 2271.018,1338.093 2269.557 C 1336.244 2268.415,1335.632 2264.736,1336.720 2261.307 C 1338.538 2255.579,1337.765 2255.242,1326.342 2256.774 L 1314.000 2258.429 1313.446 2232.465 C 1312.979 2210.586,1313.201 2175.361,1313.822 2172.750 C 1313.920 2172.338,1315.846 2172.000,1318.102 2172.000 C 1320.751 2172.000,1324.668 2181.560,1329.164 2199.000 M1343.789 2206.273 L 1343.577 2221.500 1336.443 2203.500 C 1326.994 2179.658,1327.008 2175.082,1336.500 2184.000 C 1342.667 2189.794,1343.962 2193.752,1343.789 2206.273 M1358.293 2206.332 C 1365.094 2214.154,1374.000 2240.290,1374.000 2252.428 C 1374.000 2259.337,1373.253 2259.664,1361.250 2258.016 C 1352.605 2256.829,1350.432 2257.120,1354.500 2258.922 C 1360.239 2261.463,1360.206 2261.587,1353.750 2261.789 C 1347.165 2261.995,1347.000 2261.229,1347.000 2230.500 C 1347.000 2213.175,1348.107 2199.000,1349.459 2199.000 C 1350.811 2199.000,1354.787 2202.299,1358.293 2206.332 M1402.232 2251.233 C 1405.385 2257.175,1407.410 2262.530,1406.732 2263.134 C 1406.054 2263.737,1399.088 2265.162,1391.250 2266.299 L 1377.000 2268.368 1377.000 2256.914 C 1377.000 2250.615,1375.667 2240.813,1374.038 2235.134 C 1367.273 2211.546,1387.215 2222.933,1402.232 2251.233 M1373.079 2273.193 C 1372.318 2276.112,1371.646 2274.450,1371.585 2269.500 C 1371.524 2264.550,1372.146 2262.162,1372.968 2264.193 C 1373.790 2266.224,1373.840 2270.274,1373.079 2273.193 M1365.000 2269.500 C 1365.000 2274.116,1357.168 2275.411,1348.763 2272.186 C 1341.613 2269.442,1346.197 2265.000,1356.177 2265.000 C 1362.020 2265.000,1365.000 2266.520,1365.000 2269.500 " stroke="none" fill="black" fill-rule="evenodd"/></svg>